<svg version="1.1" xmlns="http://www.w3.org/2000/svg" xmlns:xlink="http://www.w3.org/1999/xlink" stroke-linecap="round" stroke-linejoin="round" stroke-width="0" fill-rule="evenodd" clip-rule="evenodd" id="y64-YA9_OX3RijyYibI8_bottom" viewBox="0 0 44000 35000" width="44mm" height="35mm" class="w-100 h-100"><defs><style>.y64-YA9_OX3RijyYibI8_fr4 {color: #666666;}
.y64-YA9_OX3RijyYibI8_cu {color: #cccccc;}
.y64-YA9_OX3RijyYibI8_cf {color: #cc9933;}
.y64-YA9_OX3RijyYibI8_sm {color: #004200; opacity: 0.75;}
.y64-YA9_OX3RijyYibI8_ss {color: #ffffff;}
.y64-YA9_OX3RijyYibI8_sp {color: #999999;}
.y64-YA9_OX3RijyYibI8_out {color: #000000;}</style><circle cx="0" cy="0" r="1175" id="HKbuAuuuAYnrN4Xx8kqF_pad-10"/><circle cx="0" cy="0" r="875" id="HKbuAuuuAYnrN4Xx8kqF_pad-12"/><circle cx="0" cy="0" r="1000" id="HKbuAuuuAYnrN4Xx8kqF_pad-13"/><circle cx="0" cy="0" r="1014.8" id="HKbuAuuuAYnrN4Xx8kqF_pad-14"/><circle cx="0" cy="0" r="925" id="HKbuAuuuAYnrN4Xx8kqF_pad-15"/><circle cx="0" cy="0" r="400" id="uNhSoxTt-tQuhS_WaUiR_pad-13"/><circle cx="0" cy="0" r="800" id="uYAXSkJPs-WTy8iDTcb0_pad-11"/><circle cx="0" cy="0" r="500" id="uYAXSkJPs-WTy8iDTcb0_pad-12"/><circle cx="0" cy="0" r="939.8" id="uYAXSkJPs-WTy8iDTcb0_pad-13"/><circle cx="0" cy="0" r="850" id="uYAXSkJPs-WTy8iDTcb0_pad-14"/><circle cx="0" cy="0" r="300" id="uYAXSkJPs-WTy8iDTcb0_pad-17"/><circle cx="0" cy="0" r="1100" id="EfanSqdSE7Jl1t5N572v_pad-1"/><circle cx="0" cy="0" r="508" id="EfanSqdSE7Jl1t5N572v_pad-2"/><circle cx="0" cy="0" r="500" id="EfanSqdSE7Jl1t5N572v_pad-3"/><circle cx="0" cy="0" r="150" id="EfanSqdSE7Jl1t5N572v_pad-4"/><g id="y64-YA9_OX3RijyYibI8_bottom_soldermask"><use xlink:href="#HKbuAuuuAYnrN4Xx8kqF_pad-10" x="4500" y="32000"/><use xlink:href="#HKbuAuuuAYnrN4Xx8kqF_pad-10" x="39500" y="3000"/><path d="M 2852.3 23047.7 1147.7 23047.7 1147.7 23952.3 2852.3 23952.3 2852.3 23047.7 M 2852.3 23470.9 1147.7 23470.9 M 1147.7 23894.1 2852.3 23894.1 M 2852.3 21047.7 1147.7 21047.7 1147.7 21952.3 2852.3 21952.3 2852.3 21047.7 M 2852.3 21470.9 1147.7 21470.9 M 1147.7 21894.1 2852.3 21894.1 M 2852.3 19047.7 1147.7 19047.7 1147.7 19952.3 2852.3 19952.3 2852.3 19047.7 M 2852.3 19470.9 1147.7 19470.9 M 1147.7 19894.1 2852.3 19894.1 M 2852.3 17047.7 1147.7 17047.7 1147.7 17952.3 2852.3 17952.3 2852.3 17047.7 M 2852.3 17470.9 1147.7 17470.9 M 1147.7 17894.1 2852.3 17894.1 M 2852.3 15047.7 1147.7 15047.7 1147.7 15952.3 2852.3 15952.3 2852.3 15047.7 M 2852.3 15470.9 1147.7 15470.9 M 1147.7 15894.1 2852.3 15894.1 M 2852.3 13047.7 1147.7 13047.7 1147.7 13952.3 2852.3 13952.3 2852.3 13047.7 M 2852.3 13470.9 1147.7 13470.9 M 1147.7 13894.1 2852.3 13894.1 M 2852.3 11047.7 1147.7 11047.7 1147.7 11952.3 2852.3 11952.3 2852.3 11047.7 M 2852.3 11470.9 1147.7 11470.9 M 1147.7 11894.1 2852.3 11894.1 M 2852.3 9047.7 1147.7 9047.7 1147.7 9952.3 2852.3 9952.3 2852.3 9047.7 M 2852.3 9470.9 1147.7 9470.9 M 1147.7 9894.1 2852.3 9894.1 M 17147.7 23047.7 18852.3 23047.7 M 17147.7 23047.7 17147.7 23952.3 18852.3 23952.3 18852.3 23047.7 M 18852.3 23470.9 17147.7 23470.9 M 17147.7 23894.1 18852.3 23894.1 M 18852.3 21047.7 17147.7 21047.7 17147.7 21952.3 18852.3 21952.3 18852.3 21047.7 M 18852.3 21470.9 17147.7 21470.9 M 17147.7 21894.1 18852.3 21894.1 M 18852.3 19047.7 17147.7 19047.7 17147.7 19952.3 18852.3 19952.3 18852.3 19047.7 M 18852.3 19470.9 17147.7 19470.9 M 17147.7 19894.1 18852.3 19894.1 M 18852.3 17047.7 17147.7 17047.7 17147.7 17952.3 18852.3 17952.3 18852.3 17047.7 M 18852.3 17470.9 17147.7 17470.9 M 17147.7 17894.1 18852.3 17894.1 M 18852.3 15047.7 17147.7 15047.7 17147.7 15952.3 18852.3 15952.3 18852.3 15047.7 M 18852.3 15470.9 17147.7 15470.9 M 17147.7 15894.1 18852.3 15894.1 M 18852.3 13047.7 17147.7 13047.7 17147.7 13952.3 18852.3 13952.3 18852.3 13047.7 M 18852.3 13470.9 17147.7 13470.9 M 17147.7 13894.1 18852.3 13894.1 M 18852.3 11047.7 17147.7 11047.7 17147.7 11952.3 18852.3 11952.3 18852.3 11047.7 M 18852.3 11470.9 17147.7 11470.9 M 17147.7 11894.1 18852.3 11894.1 M 18852.3 9047.7 17147.7 9047.7 17147.7 9952.3 18852.3 9952.3 18852.3 9047.7 M 18852.3 9470.9 17147.7 9470.9 M 17147.7 9894.1 18852.3 9894.1" fill="none" stroke-width="445.5"/><use xlink:href="#HKbuAuuuAYnrN4Xx8kqF_pad-12" x="41000" y="10000"/><use xlink:href="#HKbuAuuuAYnrN4Xx8kqF_pad-13" x="38000" y="10500"/><use xlink:href="#HKbuAuuuAYnrN4Xx8kqF_pad-13" x="34000" y="24500"/><use xlink:href="#HKbuAuuuAYnrN4Xx8kqF_pad-13" x="1500" y="33500"/><use xlink:href="#HKbuAuuuAYnrN4Xx8kqF_pad-14" x="13970" y="30500"/><use xlink:href="#HKbuAuuuAYnrN4Xx8kqF_pad-14" x="16510" y="30500"/><use xlink:href="#HKbuAuuuAYnrN4Xx8kqF_pad-14" x="19050" y="30500"/><use xlink:href="#HKbuAuuuAYnrN4Xx8kqF_pad-14" x="8890" y="30500"/><use xlink:href="#HKbuAuuuAYnrN4Xx8kqF_pad-14" x="11430" y="30500"/><use xlink:href="#HKbuAuuuAYnrN4Xx8kqF_pad-15" x="34290" y="30500"/><use xlink:href="#HKbuAuuuAYnrN4Xx8kqF_pad-15" x="36830" y="30500"/><use xlink:href="#HKbuAuuuAYnrN4Xx8kqF_pad-15" x="39370" y="30500"/><use xlink:href="#HKbuAuuuAYnrN4Xx8kqF_pad-15" x="41910" y="30500"/><path d="M 21104 17746 21104 16054 M 21104 17746 21896 17746 21896 16054 21104 16054 M 21104 16441.6 21896 16441.6 M 21896 16829.2 21104 16829.2 M 21104 17216.8 21896 17216.8 M 21896 17604.4 21104 17604.4 M 23104 17746 23104 16054 M 23104 17746 23896 17746 23896 16054 23104 16054 M 23104 16441.6 23896 16441.6 M 23896 16829.2 23104 16829.2 M 23104 17216.8 23896 17216.8 M 23896 17604.4 23104 17604.4 M 25104 17746 25104 16054 M 25104 17746 25896 17746 25896 16054 25104 16054 M 25104 16441.6 25896 16441.6 M 25896 16829.2 25104 16829.2 M 25104 17216.8 25896 17216.8 M 25896 17604.4 25104 17604.4 M 27104 17746 27104 16054 M 27104 17746 27896 17746 27896 16054 27104 16054 M 27104 16441.6 27896 16441.6 M 27896 16829.2 27104 16829.2 M 27104 17216.8 27896 17216.8 M 27896 17604.4 27104 17604.4 M 29104 17746 29104 16054 M 29104 17746 29896 17746 29896 16054 29104 16054 M 29104 16441.6 29896 16441.6 M 29896 16829.2 29104 16829.2 M 29104 17216.8 29896 17216.8 M 29896 17604.4 29104 17604.4 M 31104 17746 31104 16054 M 31104 17746 31896 17746 31896 16054 31104 16054 M 31104 16441.6 31896 16441.6 M 31896 16829.2 31104 16829.2 M 31104 17216.8 31896 17216.8 M 31896 17604.4 31104 17604.4 M 33104 17746 33104 16054 M 33104 17746 33896 17746 33896 16054 33104 16054 M 33104 16441.6 33896 16441.6 M 33896 16829.2 33104 16829.2 M 33104 17216.8 33896 17216.8 M 33896 17604.4 33104 17604.4 M 35104 17746 35104 16054 M 35104 17746 35896 17746 35896 16054 35104 16054 M 35104 16441.6 35896 16441.6 M 35896 16829.2 35104 16829.2 M 35104 17216.8 35896 17216.8 M 35896 17604.4 35104 17604.4 M 35896 2946 35896 1254 35104 1254 35104 2946 35896 2946 M 35896 1641.6 35104 1641.6 M 35104 2029.2 35896 2029.2 M 35896 2416.8 35104 2416.8 M 35104 2804.4 35896 2804.4 M 33896 2946 33896 1254 33104 1254 33104 2946 33896 2946 M 33896 1641.6 33104 1641.6 M 33104 2029.2 33896 2029.2 M 33896 2416.8 33104 2416.8 M 33104 2804.4 33896 2804.4 M 31896 2946 31896 1254 31104 1254 31104 2946 31896 2946 M 31896 1641.6 31104 1641.6 M 31104 2029.2 31896 2029.2 M 31896 2416.8 31104 2416.8 M 31104 2804.4 31896 2804.4 M 29896 2946 29896 1254 29104 1254 29104 2946 29896 2946 M 29896 1641.6 29104 1641.6 M 29104 2029.2 29896 2029.2 M 29896 2416.8 29104 2416.8 M 29104 2804.4 29896 2804.4 M 27896 2946 27896 1254 27104 1254 27104 2946 27896 2946 M 27896 1641.6 27104 1641.6 M 27104 2029.2 27896 2029.2 M 27896 2416.8 27104 2416.8 M 27104 2804.4 27896 2804.4 M 25896 2946 25896 1254 25104 1254 25104 2946 25896 2946 M 25896 1641.6 25104 1641.6 M 25104 2029.2 25896 2029.2 M 25896 2416.8 25104 2416.8 M 25104 2804.4 25896 2804.4 M 23896 2946 23896 1254 23104 1254 23104 2946 23896 2946 M 23896 1641.6 23104 1641.6 M 23104 2029.2 23896 2029.2 M 23896 2416.8 23104 2416.8 M 23104 2804.4 23896 2804.4 M 21896 2946 21896 1254 21104 1254 21104 2946 21896 2946 M 21896 1641.6 21104 1641.6 M 21104 2029.2 21896 2029.2 M 21896 2416.8 21104 2416.8 M 21104 2804.4 21896 2804.4" fill="none" stroke-width="408"/><use xlink:href="#HKbuAuuuAYnrN4Xx8kqF_pad-15" x="21590" y="30500"/><use xlink:href="#HKbuAuuuAYnrN4Xx8kqF_pad-15" x="24130" y="30500"/><use xlink:href="#HKbuAuuuAYnrN4Xx8kqF_pad-15" x="26670" y="30500"/><use xlink:href="#HKbuAuuuAYnrN4Xx8kqF_pad-15" x="29210" y="30500"/><use xlink:href="#HKbuAuuuAYnrN4Xx8kqF_pad-15" x="31750" y="30500"/><use xlink:href="#HKbuAuuuAYnrN4Xx8kqF_pad-15" x="8890" y="33500"/><use xlink:href="#HKbuAuuuAYnrN4Xx8kqF_pad-15" x="11430" y="33500"/><use xlink:href="#HKbuAuuuAYnrN4Xx8kqF_pad-15" x="13970" y="33500"/><use xlink:href="#HKbuAuuuAYnrN4Xx8kqF_pad-15" x="16510" y="33500"/><use xlink:href="#HKbuAuuuAYnrN4Xx8kqF_pad-15" x="19050" y="33500"/><use xlink:href="#HKbuAuuuAYnrN4Xx8kqF_pad-15" x="21590" y="33500"/><use xlink:href="#HKbuAuuuAYnrN4Xx8kqF_pad-15" x="24130" y="33500"/><use xlink:href="#HKbuAuuuAYnrN4Xx8kqF_pad-15" x="26670" y="33500"/><use xlink:href="#HKbuAuuuAYnrN4Xx8kqF_pad-15" x="29210" y="33500"/><use xlink:href="#HKbuAuuuAYnrN4Xx8kqF_pad-15" x="31750" y="33500"/><use xlink:href="#HKbuAuuuAYnrN4Xx8kqF_pad-15" x="34290" y="33500"/><use xlink:href="#HKbuAuuuAYnrN4Xx8kqF_pad-15" x="36830" y="33500"/><use xlink:href="#HKbuAuuuAYnrN4Xx8kqF_pad-15" x="39370" y="33500"/><use xlink:href="#HKbuAuuuAYnrN4Xx8kqF_pad-15" x="41910" y="33500"/></g><g id="y64-YA9_OX3RijyYibI8_bottom_solderpaste"><path d="M 2850 23050 1150 23050 1150 23950 2850 23950 2850 23050 M 2850 23335 1150 23335 M 1150 23620 2850 23620 M 2850 23905 1150 23905 M 1150 21050 2850 21050 M 1150 21050 1150 21950 2850 21950 2850 21050 M 2850 21335 1150 21335 M 1150 21620 2850 21620 M 2850 21905 1150 21905 M 1150 19050 2850 19050 M 1150 19050 1150 19950 2850 19950 2850 19050 M 2850 19335 1150 19335 M 1150 19620 2850 19620 M 2850 19905 1150 19905 M 1150 17050 2850 17050 M 1150 17050 1150 17950 2850 17950 2850 17050 M 2850 17335 1150 17335 M 1150 17620 2850 17620 M 2850 17905 1150 17905 M 1150 15050 2850 15050 M 1150 15050 1150 15950 2850 15950 2850 15050 M 2850 15335 1150 15335 M 1150 15620 2850 15620 M 2850 15905 1150 15905 M 1150 13050 2850 13050 M 1150 13050 1150 13950 2850 13950 2850 13050 M 2850 13335 1150 13335 M 1150 13620 2850 13620 M 2850 13905 1150 13905 M 1150 11050 2850 11050 M 1150 11050 1150 11950 2850 11950 2850 11050 M 2850 11335 1150 11335 M 1150 11620 2850 11620 M 2850 11905 1150 11905 M 1150 9050 2850 9050 M 1150 9050 1150 9950 2850 9950 2850 9050 M 2850 9335 1150 9335 M 1150 9620 2850 9620 M 2850 9905 1150 9905 M 17150 23050 18850 23050 M 17150 23050 17150 23950 18850 23950 18850 23050 M 18850 23335 17150 23335 M 17150 23620 18850 23620 M 18850 23905 17150 23905 M 17150 21050 18850 21050 M 17150 21050 17150 21950 18850 21950 18850 21050 M 18850 21335 17150 21335 M 17150 21620 18850 21620 M 18850 21905 17150 21905 M 17150 19050 18850 19050 M 17150 19050 17150 19950 18850 19950 18850 19050 M 18850 19335 17150 19335 M 17150 19620 18850 19620 M 18850 19905 17150 19905 M 17150 17050 18850 17050 M 17150 17050 17150 17950 18850 17950 18850 17050 M 18850 17335 17150 17335 M 17150 17620 18850 17620 M 18850 17905 17150 17905 M 17150 15050 18850 15050 M 17150 15050 17150 15950 18850 15950 18850 15050 M 18850 15335 17150 15335 M 17150 15620 18850 15620 M 18850 15905 17150 15905 M 17150 13050 18850 13050 M 17150 13050 17150 13950 18850 13950 18850 13050 M 18850 13335 17150 13335 M 17150 13620 18850 13620 M 18850 13905 17150 13905 M 17150 11050 18850 11050 M 17150 11050 17150 11950 18850 11950 18850 11050 M 18850 11335 17150 11335 M 17150 11620 18850 11620 M 18850 11905 17150 11905 M 17150 9050 18850 9050 M 17150 9050 17150 9950 18850 9950 18850 9050 M 18850 9335 17150 9335 M 17150 9620 18850 9620 M 18850 9905 17150 9905" fill="none" stroke-width="300"/><path d="M 21106.2 16056.2 21106.2 17743.8 21893.8 17743.8 21893.8 16056.2 21106.2 16056.2 M 21106.2 16305.6 21893.8 16305.6 M 21893.8 16555 21106.2 16555 M 21106.2 16804.4 21893.8 16804.4 M 21893.8 17053.8 21106.2 17053.8 M 21106.2 17303.2 21893.8 17303.2 M 21893.8 17552.6 21106.2 17552.6 M 23106.2 17743.8 23106.2 16056.2 M 23106.2 17743.8 23893.8 17743.8 23893.8 16056.2 23106.2 16056.2 M 23106.2 16305.6 23893.8 16305.6 M 23893.8 16555 23106.2 16555 M 23106.2 16804.4 23893.8 16804.4 M 23893.8 17053.8 23106.2 17053.8 M 23106.2 17303.2 23893.8 17303.2 M 23893.8 17552.6 23106.2 17552.6 M 25106.2 17743.8 25106.2 16056.2 M 25106.2 17743.8 25893.8 17743.8 25893.8 16056.2 25106.2 16056.2 M 25106.2 16305.6 25893.8 16305.6 M 25893.8 16555 25106.2 16555 M 25106.2 16804.4 25893.8 16804.4 M 25893.8 17053.8 25106.2 17053.8 M 25106.2 17303.2 25893.8 17303.2 M 25893.8 17552.6 25106.2 17552.6 M 27106.2 17743.8 27106.2 16056.2 M 27106.2 17743.8 27893.8 17743.8 27893.8 16056.2 27106.2 16056.2 M 27106.2 16305.6 27893.8 16305.6 M 27893.8 16555 27106.2 16555 M 27106.2 16804.4 27893.8 16804.4 M 27893.8 17053.8 27106.2 17053.8 M 27106.2 17303.2 27893.8 17303.2 M 27893.8 17552.6 27106.2 17552.6 M 29106.2 17743.8 29106.2 16056.2 M 29106.2 17743.8 29893.8 17743.8 29893.8 16056.2 29106.2 16056.2 M 29106.2 16305.6 29893.8 16305.6 M 29893.8 16555 29106.2 16555 M 29106.2 16804.4 29893.8 16804.4 M 29893.8 17053.8 29106.2 17053.8 M 29106.2 17303.2 29893.8 17303.2 M 29893.8 17552.6 29106.2 17552.6 M 31106.2 17743.8 31106.2 16056.2 M 31106.2 17743.8 31893.8 17743.8 31893.8 16056.2 31106.2 16056.2 M 31106.2 16305.6 31893.8 16305.6 M 31893.8 16555 31106.2 16555 M 31106.2 16804.4 31893.8 16804.4 M 31893.8 17053.8 31106.2 17053.8 M 31106.2 17303.2 31893.8 17303.2 M 31893.8 17552.6 31106.2 17552.6 M 33106.2 17743.8 33106.2 16056.2 M 33106.2 17743.8 33893.8 17743.8 33893.8 16056.2 33106.2 16056.2 M 33106.2 16305.6 33893.8 16305.6 M 33893.8 16555 33106.2 16555 M 33106.2 16804.4 33893.8 16804.4 M 33893.8 17053.8 33106.2 17053.8 M 33106.2 17303.2 33893.8 17303.2 M 33893.8 17552.6 33106.2 17552.6 M 35106.2 17743.8 35106.2 16056.2 M 35106.2 17743.8 35893.8 17743.8 35893.8 16056.2 35106.2 16056.2 M 35106.2 16305.6 35893.8 16305.6 M 35893.8 16555 35106.2 16555 M 35106.2 16804.4 35893.8 16804.4 M 35893.8 17053.8 35106.2 17053.8 M 35106.2 17303.2 35893.8 17303.2 M 35893.8 17552.6 35106.2 17552.6 M 35893.8 2943.8 35893.8 1256.2 35106.2 1256.2 35106.2 2943.8 35893.8 2943.8 M 35893.8 1505.6 35106.2 1505.6 M 35106.2 1755 35893.8 1755 M 35893.8 2004.4 35106.2 2004.4 M 35106.2 2253.8 35893.8 2253.8 M 35893.8 2503.2 35106.2 2503.2 M 35106.2 2752.6 35893.8 2752.6 M 33893.8 2943.8 33893.8 1256.2 33106.2 1256.2 33106.2 2943.8 33893.8 2943.8 M 33893.8 1505.6 33106.2 1505.6 M 33106.2 1755 33893.8 1755 M 33893.8 2004.4 33106.2 2004.4 M 33106.2 2253.8 33893.8 2253.8 M 33893.8 2503.2 33106.2 2503.2 M 33106.2 2752.6 33893.8 2752.6 M 31893.8 2943.8 31893.8 1256.2 31106.2 1256.2 31106.2 2943.8 31893.8 2943.8 M 31893.8 1505.6 31106.2 1505.6 M 31106.2 1755 31893.8 1755 M 31893.8 2004.4 31106.2 2004.4 M 31106.2 2253.8 31893.8 2253.8 M 31893.8 2503.2 31106.2 2503.2 M 31106.2 2752.6 31893.8 2752.6 M 29893.8 2943.8 29893.8 1256.2 29106.2 1256.2 29106.2 2943.8 29893.8 2943.8 M 29893.8 1505.6 29106.2 1505.6 M 29106.2 1755 29893.8 1755 M 29893.8 2004.4 29106.2 2004.4 M 29106.2 2253.8 29893.8 2253.8 M 29893.8 2503.2 29106.2 2503.2 M 29106.2 2752.6 29893.8 2752.6 M 27893.8 2943.8 27893.8 1256.2 27106.2 1256.2 27106.2 2943.8 27893.8 2943.8 M 27893.8 1505.6 27106.2 1505.6 M 27106.2 1755 27893.8 1755 M 27893.8 2004.4 27106.2 2004.4 M 27106.2 2253.8 27893.8 2253.8 M 27893.8 2503.2 27106.2 2503.2 M 27106.2 2752.6 27893.8 2752.6 M 25893.8 2943.8 25893.8 1256.2 25106.2 1256.2 25106.2 2943.8 25893.8 2943.8 M 25893.8 1505.6 25106.2 1505.6 M 25106.2 1755 25893.8 1755 M 25893.8 2004.4 25106.2 2004.4 M 25106.2 2253.8 25893.8 2253.8 M 25893.8 2503.2 25106.2 2503.2 M 25106.2 2752.6 25893.8 2752.6 M 23893.8 2943.8 23893.8 1256.2 23106.2 1256.2 23106.2 2943.8 23893.8 2943.8 M 23893.8 1505.6 23106.2 1505.6 M 23106.2 1755 23893.8 1755 M 23893.8 2004.4 23106.2 2004.4 M 23106.2 2253.8 23893.8 2253.8 M 23893.8 2503.2 23106.2 2503.2 M 23106.2 2752.6 23893.8 2752.6 M 21893.8 2943.8 21893.8 1256.2 21106.2 1256.2 21106.2 2943.8 21893.8 2943.8 M 21893.8 1505.6 21106.2 1505.6 M 21106.2 1755 21893.8 1755 M 21893.8 2004.4 21106.2 2004.4 M 21106.2 2253.8 21893.8 2253.8 M 21893.8 2503.2 21106.2 2503.2 M 21106.2 2752.6 21893.8 2752.6" fill="none" stroke-width="262.5"/></g><g id="y64-YA9_OX3RijyYibI8_bottom_silkscreen"><path d="M 28681 26401.6 28681 27598.4 M 29013.4 27598.4 28348.5 27598.4 M 27589 27598.4 27589 26401.6 M 27921.4 27598.4 27256.5 27598.4 M 26703.4 27598.4 26703.4 26401.6 M 26038.5 26401.6 26703.4 27598.4 M 26038.5 27598.4 26038.5 26401.6 M 24669.9 26401.6 24669.9 27598.4 24271 26933.5 23872.1 27598.4 23872.1 26401.6 M 23011.4 26867 22712.2 26867 M 23011.4 26867 23020.9 26866.8 23030.4 26866.2 23039.8 26865.3 23049.2 26863.9 23058.5 26862.2 23067.8 26860.1 23077 26857.6 23086 26854.7 23094.9 26851.5 23103.7 26847.9 23112.4 26844 23120.8 26839.7 23129.1 26835 23137.2 26830.1 23145.1 26824.8 23152.7 26819.2 23160.2 26813.2 23167.3 26807 23174.3 26800.5 23180.9 26793.7 23187.3 26786.7 23193.3 26779.4 23199.1 26771.8 23204.6 26764.1 23209.7 26756.1 23214.5 26747.9 23219 26739.5 23223.1 26731 23226.8 26722.3 23230.2 26713.4 23233.3 26704.4 23236 26695.3 23238.3 26686.1 23240.2 26676.8 23241.7 26667.4 23242.9 26658 23243.7 26648.5 23244.1 26639 23244.1 26629.6 23243.7 26620.1 23242.9 26610.6 23241.7 26601.2 23240.2 26591.8 23238.3 26582.5 23236 26573.3 23233.3 26564.2 23230.2 26555.2 23226.8 26546.3 23223.1 26537.6 23219 26529.1 23214.5 26520.7 23209.7 26512.5 23204.6 26504.5 23199.1 26496.8 23193.3 26489.2 23187.3 26481.9 23180.9 26474.9 23174.3 26468.1 23167.3 26461.6 23160.2 26455.4 23152.7 26449.4 23145.1 26443.8 23137.2 26438.5 23129.1 26433.6 23120.8 26428.9 23112.4 26424.6 23103.7 26420.7 23094.9 26417.1 23086 26413.9 23077 26411 23067.8 26408.5 23058.5 26406.4 23049.2 26404.7 23039.8 26403.3 23030.4 26402.4 23020.9 26401.8 23011.4 26401.6 22712.2 26401.6 22712.2 27000 M 22712.1 27000 22712.3 27008.7 22712.9 27017.4 22713.8 27026 22715.1 27034.6 22716.8 27043.2 22718.9 27051.6 22721.3 27060 22724.1 27068.2 22727.3 27076.3 22730.8 27084.3 22734.6 27092.1 22738.8 27099.8 22743.3 27107.2 22748.2 27114.4 22753.3 27121.4 22758.8 27128.2 22764.5 27134.8 22770.5 27141.1 22776.8 27147.1 22783.4 27152.8 22790.2 27158.3 22797.2 27163.4 22804.4 27168.3 22811.9 27172.8 22819.5 27177 22827.3 27180.8 22835.3 27184.3 22843.4 27187.5 22851.6 27190.3 22860 27192.7 22868.4 27194.8 22877 27196.5 22885.6 27197.8 22894.2 27198.7 22902.9 27199.3 22911.6 27199.5 23177.6 27199.5 M 21578.2 27598.4 21578.2 26401.6 21910.6 26401.6 21919.3 26401.8 21928 26402.4 21936.6 26403.3 21945.2 26404.6 21953.8 26406.3 21962.2 26408.4 21970.6 26410.8 21978.8 26413.6 21986.9 26416.8 21994.9 26420.3 22002.7 26424.1 22010.4 26428.3 22017.8 26432.8 22025 26437.7 22032 26442.8 22038.8 26448.3 22045.4 26454 22051.7 26460 22057.7 26466.3 22063.4 26472.9 22068.9 26479.7 22074 26486.7 22078.9 26493.9 22083.4 26501.4 22087.6 26509 22091.4 26516.8 22094.9 26524.8 22098.1 26532.9 22100.9 26541.1 22103.3 26549.5 22105.4 26557.9 22107.1 26566.5 22108.4 26575.1 22109.3 26583.7 22109.9 26592.4 22110.1 26601.1 22110.1 27000 22109.9 27008.7 22109.3 27017.4 22108.4 27026 22107.1 27034.6 22105.4 27043.2 22103.3 27051.6 22100.9 27060 22098.1 27068.2 22094.9 27076.3 22091.4 27084.3 22087.6 27092.1 22083.4 27099.8 22078.9 27107.2 22074 27114.4 22068.9 27121.4 22063.4 27128.2 22057.7 27134.8 22051.7 27141.1 22045.4 27147.1 22038.8 27152.8 22032 27158.3 22025 27163.4 22017.8 27168.3 22010.4 27172.8 22002.7 27177 21994.9 27180.8 21986.9 27184.3 21978.8 27187.5 21970.6 27190.3 21962.2 27192.7 21953.8 27194.8 21945.2 27196.5 21936.6 27197.8 21928 27198.7 21919.3 27199.3 21910.6 27199.5 21578.2 27199.5 M 20914.7 27199.5 20914.7 26401.6 M 20914.7 27199.5 20515.7 27199.5 20515.7 27066.5 M 20113 27199.5 20113 26401.6 M 20146.2 27531.9 20146.2 27598.4 20079.8 27598.4 20079.8 27531.9 20146.2 27531.9 M 19058.2 27598.4 19058.2 26401.6 19390.6 26401.6 19399.3 26401.8 19408 26402.4 19416.6 26403.3 19425.2 26404.6 19433.8 26406.3 19442.2 26408.4 19450.6 26410.8 19458.8 26413.6 19466.9 26416.8 19474.9 26420.3 19482.7 26424.1 19490.4 26428.3 19497.8 26432.8 19505 26437.7 19512 26442.8 19518.8 26448.3 19525.4 26454 19531.7 26460 19537.7 26466.3 19543.4 26472.9 19548.9 26479.7 19554 26486.7 19558.9 26493.9 19563.4 26501.4 19567.6 26509 19571.4 26516.8 19574.9 26524.8 19578.1 26532.9 19580.9 26541.1 19583.3 26549.5 19585.4 26557.9 19587.1 26566.5 19588.4 26575.1 19589.3 26583.7 19589.9 26592.4 19590.1 26601.1 19590.1 27000 19589.9 27008.7 19589.3 27017.4 19588.4 27026 19587.1 27034.6 19585.4 27043.2 19583.3 27051.6 19580.9 27060 19578.1 27068.2 19574.9 27076.3 19571.4 27084.3 19567.6 27092.1 19563.4 27099.8 19558.9 27107.2 19554 27114.4 19548.9 27121.4 19543.4 27128.2 19537.7 27134.8 19531.7 27141.1 19525.4 27147.1 19518.8 27152.8 19512 27158.3 19505 27163.4 19497.8 27168.3 19490.4 27172.8 19482.7 27177 19474.9 27180.8 19466.9 27184.3 19458.8 27187.5 19450.6 27190.3 19442.2 27192.7 19433.8 27194.8 19425.2 27196.5 19416.6 27197.8 19408 27198.7 19399.3 27199.3 19390.6 27199.5 19058.2 27199.5 M 17715.4 27598.4 17715.4 26401.6 M 17050.6 26401.6 17715.4 27598.4 M 17050.6 27598.4 17050.6 26401.6 M 16431 26667.6 16431 26933.5 16430.8 26943.7 16430.2 26953.9 16429.2 26964 16427.9 26974.1 16426.1 26984.1 16424 26994.1 16421.5 27004 16418.6 27013.8 16415.3 27023.4 16411.7 27032.9 16407.7 27042.3 16403.4 27051.5 16398.7 27060.6 16393.6 27069.4 16388.3 27078.1 16382.6 27086.5 16376.5 27094.8 16370.2 27102.7 16363.6 27110.5 16356.7 27118 16349.5 27125.2 16342 27132.1 16334.2 27138.7 16326.3 27145 16318 27151.1 16309.6 27156.8 16300.9 27162.1 16292.1 27167.2 16283 27171.9 16273.8 27176.2 16264.4 27180.2 16254.9 27183.8 16245.3 27187.1 16235.5 27190 16225.6 27192.5 16215.6 27194.6 16205.6 27196.4 16195.5 27197.7 16185.4 27198.7 16175.2 27199.3 16165 27199.5 16154.8 27199.3 16144.6 27198.7 16134.5 27197.7 16124.4 27196.4 16114.4 27194.6 16104.4 27192.5 16094.5 27190 16084.7 27187.1 16075.1 27183.8 16065.6 27180.2 16056.2 27176.2 16047 27171.9 16037.9 27167.2 16029.1 27162.1 16020.4 27156.8 16012 27151.1 16003.7 27145 15995.8 27138.7 15988 27132.1 15980.5 27125.2 15973.3 27118 15966.4 27110.5 15959.8 27102.7 15953.5 27094.8 15947.4 27086.5 15941.7 27078.1 15936.4 27069.4 15931.3 27060.6 15926.6 27051.5 15922.3 27042.3 15918.3 27032.9 15914.7 27023.4 15911.4 27013.8 15908.5 27004 15906 26994.1 15903.9 26984.1 15902.1 26974.1 15900.8 26964 15899.8 26953.9 15899.2 26943.7 15899 26933.5 M 15899.1 26933.5 15899.1 26667.6 M 15899 26667.6 15899.2 26657.4 15899.8 26647.2 15900.8 26637.1 15902.1 26627 15903.9 26617 15906 26607 15908.5 26597.1 15911.4 26587.3 15914.7 26577.7 15918.3 26568.2 15922.3 26558.8 15926.6 26549.6 15931.3 26540.5 15936.4 26531.7 15941.7 26523 15947.4 26514.6 15953.5 26506.3 15959.8 26498.4 15966.4 26490.6 15973.3 26483.1 15980.5 26475.9 15988 26469 15995.8 26462.4 16003.7 26456.1 16012 26450 16020.4 26444.3 16029.1 26439 16037.9 26433.9 16047 26429.2 16056.2 26424.9 16065.6 26420.9 16075.1 26417.3 16084.7 26414 16094.5 26411.1 16104.4 26408.6 16114.4 26406.5 16124.4 26404.7 16134.5 26403.4 16144.6 26402.4 16154.8 26401.8 16165 26401.6 16175.2 26401.8 16185.4 26402.4 16195.5 26403.4 16205.6 26404.7 16215.6 26406.5 16225.6 26408.6 16235.5 26411.1 16245.3 26414 16254.9 26417.3 16264.4 26420.9 16273.8 26424.9 16283 26429.2 16292.1 26433.9 16300.9 26439 16309.6 26444.3 16318 26450 16326.3 26456.1 16334.2 26462.4 16342 26469 16349.5 26475.9 16356.7 26483.1 16363.6 26490.6 16370.2 26498.4 16376.5 26506.3 16382.6 26514.6 16388.3 26523 16393.6 26531.7 16398.7 26540.5 16403.4 26549.6 16407.7 26558.8 16411.7 26568.2 16415.3 26577.7 16418.6 26587.3 16421.5 26597.1 16424 26607 16426.1 26617 16427.9 26627 16429.2 26637.1 16430.2 26647.2 16430.8 26657.4 16431 26667.6 M 14816.2 26401.6 14816.2 27598.4 M 14816.2 26401.6 15148.6 26401.6 15157.3 26401.8 15166 26402.4 15174.6 26403.3 15183.2 26404.6 15191.8 26406.3 15200.2 26408.4 15208.6 26410.8 15216.8 26413.6 15224.9 26416.8 15232.9 26420.3 15240.7 26424.1 15248.4 26428.3 15255.8 26432.8 15263 26437.7 15270 26442.8 15276.8 26448.3 15283.4 26454 15289.7 26460 15295.7 26466.3 15301.4 26472.9 15306.9 26479.7 15312 26486.7 15316.9 26493.9 15321.4 26501.4 15325.6 26509 15329.4 26516.8 15332.9 26524.8 15336.1 26532.9 15338.9 26541.1 15341.3 26549.5 15343.4 26557.9 15345.1 26566.5 15346.4 26575.1 15347.3 26583.7 15347.9 26592.4 15348.1 26601.1 15348.1 27000 15347.9 27008.7 15347.3 27017.4 15346.4 27026 15345.1 27034.6 15343.4 27043.2 15341.3 27051.6 15338.9 27060 15336.1 27068.2 15332.9 27076.3 15329.4 27084.3 15325.6 27092.1 15321.4 27099.8 15316.9 27107.2 15312 27114.4 15306.9 27121.4 15301.4 27128.2 15295.7 27134.8 15289.7 27141.1 15283.4 27147.1 15276.8 27152.8 15270 27158.3 15263 27163.4 15255.8 27168.3 15248.4 27172.8 15240.7 27177 15232.9 27180.8 15224.9 27184.3 15216.8 27187.5 15208.6 27190.3 15200.2 27192.7 15191.8 27194.8 15183.2 27196.5 15174.6 27197.8 15166 27198.7 15157.3 27199.3 15148.6 27199.5 14816.2 27199.5 M 14005.5 26401.6 13673.1 26401.6 M 14005.5 26401.6 14014.2 26401.8 14022.9 26402.4 14031.5 26403.3 14040.1 26404.6 14048.7 26406.3 14057.1 26408.4 14065.5 26410.8 14073.7 26413.6 14081.8 26416.8 14089.8 26420.3 14097.6 26424.1 14105.3 26428.3 14112.7 26432.8 14119.9 26437.7 14126.9 26442.8 14133.7 26448.3 14140.3 26454 14146.6 26460 14152.6 26466.3 14158.3 26472.9 14163.8 26479.7 14168.9 26486.7 14173.8 26493.9 14178.3 26501.4 14182.5 26509 14186.3 26516.8 14189.8 26524.8 14193 26532.9 14195.8 26541.1 14198.2 26549.5 14200.3 26557.9 14202 26566.5 14203.3 26575.1 14204.2 26583.7 14204.8 26592.4 14205 26601.1 14205 26933.5 14204.8 26943.7 14204.2 26953.9 14203.2 26964 14201.9 26974.1 14200.1 26984.1 14198 26994.1 14195.5 27004 14192.6 27013.8 14189.3 27023.4 14185.7 27032.9 14181.7 27042.3 14177.4 27051.5 14172.7 27060.6 14167.6 27069.4 14162.3 27078.1 14156.6 27086.5 14150.5 27094.8 14144.2 27102.7 14137.6 27110.5 14130.7 27118 14123.5 27125.2 14116 27132.1 14108.2 27138.7 14100.3 27145 14092 27151.1 14083.6 27156.8 14074.9 27162.1 14066.1 27167.2 14057 27171.9 14047.8 27176.2 14038.4 27180.2 14028.9 27183.8 14019.3 27187.1 14009.5 27190 13999.6 27192.5 13989.6 27194.6 13979.6 27196.4 13969.5 27197.7 13959.4 27198.7 13949.2 27199.3 13939 27199.5 13928.8 27199.3 13918.6 27198.7 13908.5 27197.7 13898.4 27196.4 13888.4 27194.6 13878.4 27192.5 13868.5 27190 13858.7 27187.1 13849.1 27183.8 13839.6 27180.2 13830.2 27176.2 13821 27171.9 13811.9 27167.2 13803.1 27162.1 13794.4 27156.8 13786 27151.1 13777.7 27145 13769.8 27138.7 13762 27132.1 13754.5 27125.2 13747.3 27118 13740.4 27110.5 13733.8 27102.7 13727.5 27094.8 13721.4 27086.5 13715.7 27078.1 13710.4 27069.4 13705.3 27060.6 13700.6 27051.5 13696.3 27042.3 13692.3 27032.9 13688.7 27023.4 13685.4 27013.8 13682.5 27004 13680 26994.1 13677.9 26984.1 13676.1 26974.1 13674.8 26964 13673.8 26953.9 13673.2 26943.7 13673 26933.5 M 13673.1 26933.5 13673.1 26800.5 14205 26800.5 M 12483 27199.5 12217 26401.6 11951.1 27199.5 M 11415.5 27465.4 11415.5 27598.4 10750.6 27598.4 11083 26401.6 M 10234.3 26401.6 10234.3 26468.1 10167.8 26468.1 10167.8 26401.6 10234.3 26401.6 M 9651.5 27332.4 9319 27598.4 9319 26401.6 M 8986.6 26401.6 9651.5 26401.6" fill="none" stroke-width="203.2"/><path d="M 2000 25000 18000 25000 18000 1000 2000 1000 2000 25000" fill="none" stroke-width="127"/><path d="M 20500 17500 20500 1500 M 36500 1500 36500 17500" fill="none" stroke-width="200"/><use xlink:href="#uNhSoxTt-tQuhS_WaUiR_pad-13" x="21500" y="19000"/><path d="M 0 7500 1.9 7456.4 7.6 7413.2 17 7370.6 30.2 7329 46.8 7288.7 67 7250 90.4 7213.2 117 7178.6 146.4 7146.4 178.6 7117 213.2 7090.4 250 7067 288.7 7046.8 329 7030.2 370.6 7017 413.2 7007.6 456.4 7001.9 500 7000 18500 7000 18543.6 6998.1 18586.8 6992.4 18629.4 6983 18671 6969.8 18711.3 6953.2 18750 6933 18786.8 6909.6 18821.4 6883 18853.6 6853.6 18883 6821.4 18909.6 6786.8 18933 6750 18953.2 6711.3 18969.8 6671 18983 6629.4 18992.4 6586.8 18998.1 6543.6 19000 6500 19000 500 19001.9 456.4 19007.6 413.2 19017 370.6 19030.2 329 19046.8 288.7 19067 250 19090.4 213.2 19117 178.6 19146.4 146.4 19178.6 117 19213.2 90.4 19250 67 19288.7 46.8 19329 30.2 19370.6 17 19413.2 7.6 19456.4 1.9 19500 0 43500 0 43543.6 1.9 43586.8 7.6 43629.4 17 43671 30.2 43711.3 46.8 43750 67 43786.8 90.4 43821.4 117 43853.6 146.5 43883 178.6 43909.6 213.2 43933 250 43953.2 288.7 43969.8 329 43983 370.6 43992.4 413.2 43998.1 456.4 44000 500 44000 11500 43998.1 11543.6 43992.4 11586.8 43983 11629.4 43969.8 11671 43953.2 11711.3 43933 11750 43909.6 11786.8 43883 11821.4 43853.6 11853.6 43821.4 11883 43786.8 11909.6 43750 11933 43711.3 11953.2 43671 11969.8 43629.4 11983 43586.8 11992.4 43543.6 11998.1 43500 12000 38500 12000 38456.4 12001.9 38413.2 12007.6 38370.6 12017 38329 12030.2 38288.7 12046.8 38250 12067 38213.2 12090.4 38178.6 12117 38146.4 12146.4 38117 12178.6 38090.4 12213.2 38067 12250 38046.8 12288.7 38030.2 12329 38017 12370.6 38007.6 12413.2 38001.9 12456.4 38000 12500 38000 28500 38001.9 28543.6 38007.6 28586.8 38017 28629.4 38030.2 28671 38046.8 28711.3 38067 28750 38090.4 28786.8 38117 28821.4 38146.4 28853.6 38178.6 28883 38213.2 28909.6 38250 28933 38288.7 28953.2 38329 28969.8 38370.6 28983 38413.2 28992.4 38456.4 28998.1 38500 29000 38500 29000 43500 29000 43543.6 29001.9 43586.8 29007.6 43629.4 29017 43671 29030.2 43711.3 29046.8 43750 29067 43786.8 29090.4 43821.4 29117 43853.6 29146.4 43883 29178.6 43909.6 29213.2 43933 29250 43953.2 29288.7 43969.8 29329 43983 29370.6 43992.4 29413.2 43998.1 29456.4 44000 29500 44000 34500 43998.1 34543.6 43992.4 34586.8 43983 34629.4 43969.8 34671 43953.2 34711.3 43933 34750 43909.6 34786.8 43883 34821.4 43853.6 34853.6 43821.4 34883 43786.8 34909.6 43750 34933 43711.3 34953.2 43671 34969.8 43629.4 34983 43586.8 34992.4 43543.6 34998.1 43500 35000 500 35000 456.4 34998.1 413.2 34992.4 370.6 34983 329 34969.8 288.7 34953.2 250 34933 213.2 34909.6 178.6 34883 146.4 34853.6 117 34821.4 90.4 34786.8 67 34750 46.8 34711.3 30.2 34671 17 34629.4 7.6 34586.8 1.9 34543.6 0 34500 0 7500" fill="none" stroke-width="254"/></g><g id="y64-YA9_OX3RijyYibI8_bottom_copper"><path d="M 2850 23050 1150 23050 1150 23950 2850 23950 2850 23050 M 2850 23335 1150 23335 M 1150 23620 2850 23620 M 2850 23905 1150 23905 M 1150 21050 2850 21050 M 1150 21050 1150 21950 2850 21950 2850 21050 M 2850 21335 1150 21335 M 1150 21620 2850 21620 M 2850 21905 1150 21905 M 1150 19050 2850 19050 M 1150 19050 1150 19950 2850 19950 2850 19050 M 2850 19335 1150 19335 M 1150 19620 2850 19620 M 2850 19905 1150 19905 M 1150 17050 2850 17050 M 1150 17050 1150 17950 2850 17950 2850 17050 M 2850 17335 1150 17335 M 1150 17620 2850 17620 M 2850 17905 1150 17905 M 1150 15050 2850 15050 M 1150 15050 1150 15950 2850 15950 2850 15050 M 2850 15335 1150 15335 M 1150 15620 2850 15620 M 2850 15905 1150 15905 M 1150 13050 2850 13050 M 1150 13050 1150 13950 2850 13950 2850 13050 M 2850 13335 1150 13335 M 1150 13620 2850 13620 M 2850 13905 1150 13905 M 1150 11050 2850 11050 M 1150 11050 1150 11950 2850 11950 2850 11050 M 2850 11335 1150 11335 M 1150 11620 2850 11620 M 2850 11905 1150 11905 M 1150 9050 2850 9050 M 1150 9050 1150 9950 2850 9950 2850 9050 M 2850 9335 1150 9335 M 1150 9620 2850 9620 M 2850 9905 1150 9905 M 17150 23050 18850 23050 M 17150 23050 17150 23950 18850 23950 18850 23050 M 18850 23335 17150 23335 M 17150 23620 18850 23620 M 18850 23905 17150 23905 M 17150 21050 18850 21050 M 17150 21050 17150 21950 18850 21950 18850 21050 M 18850 21335 17150 21335 M 17150 21620 18850 21620 M 18850 21905 17150 21905 M 17150 19050 18850 19050 M 17150 19050 17150 19950 18850 19950 18850 19050 M 18850 19335 17150 19335 M 17150 19620 18850 19620 M 18850 19905 17150 19905 M 17150 17050 18850 17050 M 17150 17050 17150 17950 18850 17950 18850 17050 M 18850 17335 17150 17335 M 17150 17620 18850 17620 M 18850 17905 17150 17905 M 17150 15050 18850 15050 M 17150 15050 17150 15950 18850 15950 18850 15050 M 18850 15335 17150 15335 M 17150 15620 18850 15620 M 18850 15905 17150 15905 M 17150 13050 18850 13050 M 17150 13050 17150 13950 18850 13950 18850 13050 M 18850 13335 17150 13335 M 17150 13620 18850 13620 M 18850 13905 17150 13905 M 17150 11050 18850 11050 M 17150 11050 17150 11950 18850 11950 18850 11050 M 18850 11335 17150 11335 M 17150 11620 18850 11620 M 18850 11905 17150 11905 M 17150 9050 18850 9050 M 17150 9050 17150 9950 18850 9950 18850 9050 M 18850 9335 17150 9335 M 17150 9620 18850 9620 M 18850 9905 17150 9905" fill="none" stroke-width="300"/><use xlink:href="#uYAXSkJPs-WTy8iDTcb0_pad-11" x="41000" y="10000"/><use xlink:href="#uYAXSkJPs-WTy8iDTcb0_pad-12" x="38000" y="10500"/><use xlink:href="#uYAXSkJPs-WTy8iDTcb0_pad-12" x="34000" y="24500"/><use xlink:href="#uYAXSkJPs-WTy8iDTcb0_pad-12" x="1500" y="33500"/><use xlink:href="#uYAXSkJPs-WTy8iDTcb0_pad-13" x="13970" y="30500"/><use xlink:href="#uYAXSkJPs-WTy8iDTcb0_pad-13" x="16510" y="30500"/><use xlink:href="#uYAXSkJPs-WTy8iDTcb0_pad-13" x="19050" y="30500"/><use xlink:href="#uYAXSkJPs-WTy8iDTcb0_pad-13" x="8890" y="30500"/><use xlink:href="#uYAXSkJPs-WTy8iDTcb0_pad-13" x="11430" y="30500"/><use xlink:href="#uYAXSkJPs-WTy8iDTcb0_pad-14" x="34290" y="30500"/><use xlink:href="#uYAXSkJPs-WTy8iDTcb0_pad-14" x="36830" y="30500"/><use xlink:href="#uYAXSkJPs-WTy8iDTcb0_pad-14" x="39370" y="30500"/><use xlink:href="#uYAXSkJPs-WTy8iDTcb0_pad-14" x="41910" y="30500"/><path d="M 21106.2 17743.8 21106.2 16056.2 M 21106.2 17743.8 21893.8 17743.8 21893.8 16056.2 21106.2 16056.2 M 21106.2 16305.6 21893.8 16305.6 M 21893.8 16555 21106.2 16555 M 21106.2 16804.4 21893.8 16804.4 M 21893.8 17053.8 21106.2 17053.8 M 21106.2 17303.2 21893.8 17303.2 M 21893.8 17552.6 21106.2 17552.6 M 23106.2 17743.8 23106.2 16056.2 M 23106.2 17743.8 23893.8 17743.8 23893.8 16056.2 23106.2 16056.2 M 23106.2 16305.6 23893.8 16305.6 M 23893.8 16555 23106.2 16555 M 23106.2 16804.4 23893.8 16804.4 M 23893.8 17053.8 23106.2 17053.8 M 23106.2 17303.2 23893.8 17303.2 M 23893.8 17552.6 23106.2 17552.6 M 25106.2 17743.8 25106.2 16056.2 M 25106.2 17743.8 25893.8 17743.8 25893.8 16056.2 25106.2 16056.2 M 25106.2 16305.6 25893.8 16305.6 M 25893.8 16555 25106.2 16555 M 25106.2 16804.4 25893.8 16804.4 M 25893.8 17053.8 25106.2 17053.8 M 25106.2 17303.2 25893.8 17303.2 M 25893.8 17552.6 25106.2 17552.6 M 27106.2 17743.8 27106.2 16056.2 M 27106.2 17743.8 27893.8 17743.8 27893.8 16056.2 27106.2 16056.2 M 27106.2 16305.6 27893.8 16305.6 M 27893.8 16555 27106.2 16555 M 27106.2 16804.4 27893.8 16804.4 M 27893.8 17053.8 27106.2 17053.8 M 27106.2 17303.2 27893.8 17303.2 M 27893.8 17552.6 27106.2 17552.6 M 29106.2 17743.8 29106.2 16056.2 M 29106.2 17743.8 29893.8 17743.8 29893.8 16056.2 29106.2 16056.2 M 29106.2 16305.6 29893.8 16305.6 M 29893.8 16555 29106.2 16555 M 29106.2 16804.4 29893.8 16804.4 M 29893.8 17053.8 29106.2 17053.8 M 29106.2 17303.2 29893.8 17303.2 M 29893.8 17552.6 29106.2 17552.6 M 31106.2 17743.8 31106.2 16056.2 M 31106.2 17743.8 31893.8 17743.8 31893.8 16056.2 31106.2 16056.2 M 31106.2 16305.6 31893.8 16305.6 M 31893.8 16555 31106.2 16555 M 31106.2 16804.4 31893.8 16804.4 M 31893.8 17053.8 31106.2 17053.8 M 31106.2 17303.2 31893.8 17303.2 M 31893.8 17552.6 31106.2 17552.6 M 33106.2 17743.8 33106.2 16056.2 M 33106.2 17743.8 33893.8 17743.8 33893.8 16056.2 33106.2 16056.2 M 33106.2 16305.6 33893.8 16305.6 M 33893.8 16555 33106.2 16555 M 33106.2 16804.4 33893.8 16804.4 M 33893.8 17053.8 33106.2 17053.8 M 33106.2 17303.2 33893.8 17303.2 M 33893.8 17552.6 33106.2 17552.6 M 35106.2 17743.8 35106.2 16056.2 M 35106.2 17743.8 35893.8 17743.8 35893.8 16056.2 35106.2 16056.2 M 35106.2 16305.6 35893.8 16305.6 M 35893.8 16555 35106.2 16555 M 35106.2 16804.4 35893.8 16804.4 M 35893.8 17053.8 35106.2 17053.8 M 35106.2 17303.2 35893.8 17303.2 M 35893.8 17552.6 35106.2 17552.6 M 35893.8 2943.8 35893.8 1256.2 35106.2 1256.2 35106.2 2943.8 35893.8 2943.8 M 35893.8 1505.6 35106.2 1505.6 M 35106.2 1755 35893.8 1755 M 35893.8 2004.4 35106.2 2004.4 M 35106.2 2253.8 35893.8 2253.8 M 35893.8 2503.2 35106.2 2503.2 M 35106.2 2752.6 35893.8 2752.6 M 33893.8 2943.8 33893.8 1256.2 33106.2 1256.2 33106.2 2943.8 33893.8 2943.8 M 33893.8 1505.6 33106.2 1505.6 M 33106.2 1755 33893.8 1755 M 33893.8 2004.4 33106.2 2004.4 M 33106.2 2253.8 33893.8 2253.8 M 33893.8 2503.2 33106.2 2503.2 M 33106.2 2752.6 33893.8 2752.6 M 31893.8 2943.8 31893.8 1256.2 31106.2 1256.2 31106.2 2943.8 31893.8 2943.8 M 31893.8 1505.6 31106.2 1505.6 M 31106.2 1755 31893.8 1755 M 31893.8 2004.4 31106.2 2004.4 M 31106.2 2253.8 31893.8 2253.8 M 31893.8 2503.2 31106.2 2503.2 M 31106.2 2752.6 31893.8 2752.6 M 29893.8 2943.8 29893.8 1256.2 29106.2 1256.2 29106.2 2943.8 29893.8 2943.8 M 29893.8 1505.6 29106.2 1505.6 M 29106.2 1755 29893.8 1755 M 29893.8 2004.4 29106.2 2004.4 M 29106.2 2253.8 29893.8 2253.8 M 29893.8 2503.2 29106.2 2503.2 M 29106.2 2752.6 29893.8 2752.6 M 27893.8 2943.8 27893.8 1256.2 27106.2 1256.2 27106.2 2943.8 27893.8 2943.8 M 27893.8 1505.6 27106.2 1505.6 M 27106.2 1755 27893.8 1755 M 27893.8 2004.4 27106.2 2004.4 M 27106.2 2253.8 27893.8 2253.8 M 27893.8 2503.2 27106.2 2503.2 M 27106.2 2752.6 27893.8 2752.6 M 25893.8 2943.8 25893.8 1256.2 25106.2 1256.2 25106.2 2943.8 25893.8 2943.8 M 25893.8 1505.6 25106.2 1505.6 M 25106.2 1755 25893.8 1755 M 25893.8 2004.4 25106.2 2004.4 M 25106.2 2253.8 25893.8 2253.8 M 25893.8 2503.2 25106.2 2503.2 M 25106.2 2752.6 25893.8 2752.6 M 23893.8 2943.8 23893.8 1256.2 23106.2 1256.2 23106.2 2943.8 23893.8 2943.8 M 23893.8 1505.6 23106.2 1505.6 M 23106.2 1755 23893.8 1755 M 23893.8 2004.4 23106.2 2004.4 M 23106.2 2253.8 23893.8 2253.8 M 23893.8 2503.2 23106.2 2503.2 M 23106.2 2752.6 23893.8 2752.6 M 21893.8 2943.8 21893.8 1256.2 21106.2 1256.2 21106.2 2943.8 21893.8 2943.8 M 21893.8 1505.6 21106.2 1505.6 M 21106.2 1755 21893.8 1755 M 21893.8 2004.4 21106.2 2004.4 M 21106.2 2253.8 21893.8 2253.8 M 21893.8 2503.2 21106.2 2503.2 M 21106.2 2752.6 21893.8 2752.6" fill="none" stroke-width="262.5"/><use xlink:href="#uYAXSkJPs-WTy8iDTcb0_pad-14" x="21590" y="30500"/><use xlink:href="#uYAXSkJPs-WTy8iDTcb0_pad-14" x="24130" y="30500"/><use xlink:href="#uYAXSkJPs-WTy8iDTcb0_pad-14" x="26670" y="30500"/><use xlink:href="#uYAXSkJPs-WTy8iDTcb0_pad-14" x="29210" y="30500"/><use xlink:href="#uYAXSkJPs-WTy8iDTcb0_pad-14" x="31750" y="30500"/><use xlink:href="#uYAXSkJPs-WTy8iDTcb0_pad-14" x="8890" y="33500"/><use xlink:href="#uYAXSkJPs-WTy8iDTcb0_pad-14" x="11430" y="33500"/><use xlink:href="#uYAXSkJPs-WTy8iDTcb0_pad-14" x="13970" y="33500"/><use xlink:href="#uYAXSkJPs-WTy8iDTcb0_pad-14" x="16510" y="33500"/><use xlink:href="#uYAXSkJPs-WTy8iDTcb0_pad-14" x="19050" y="33500"/><use xlink:href="#uYAXSkJPs-WTy8iDTcb0_pad-14" x="21590" y="33500"/><use xlink:href="#uYAXSkJPs-WTy8iDTcb0_pad-14" x="24130" y="33500"/><use xlink:href="#uYAXSkJPs-WTy8iDTcb0_pad-14" x="26670" y="33500"/><use xlink:href="#uYAXSkJPs-WTy8iDTcb0_pad-14" x="29210" y="33500"/><use xlink:href="#uYAXSkJPs-WTy8iDTcb0_pad-14" x="31750" y="33500"/><use xlink:href="#uYAXSkJPs-WTy8iDTcb0_pad-14" x="34290" y="33500"/><use xlink:href="#uYAXSkJPs-WTy8iDTcb0_pad-14" x="36830" y="33500"/><use xlink:href="#uYAXSkJPs-WTy8iDTcb0_pad-14" x="39370" y="33500"/><use xlink:href="#uYAXSkJPs-WTy8iDTcb0_pad-14" x="41910" y="33500"/><path d="M 35475 21600 35475 16950 35500 16900 M 27600 12900 26700 12900 24375 10575 23850 10575 21525 12900 21525 16875 21500 16900 M 16800 10200 14400 10200 M 16800 10200 17250 10650 19200 10650 21450 12900 21525 12900 M 12825 11850 12825 14250 M 12825 11850 14400 10275 14400 10200 M 33450 7125 33450 2100 M 31462.5 9112.5 27675 12900 M 31462.5 9112.5 33450 7125 M 33450 2100 33500 2100 M 27675 12900 27600 12900 M 35475 9075 35475 16875 M 35475 9075 33525 7125 M 35475 16875 35500 16900 M 33525 7125 33450 7125 M 27300 28725 23325 28725 21600 30450 21590 30500 M 19500 23550 18000 23550 18000 23500 M 31500 9150 31462.5 9112.5" fill="none" stroke-width="200"/><use xlink:href="#uYAXSkJPs-WTy8iDTcb0_pad-17" x="35475" y="21600"/><use xlink:href="#uYAXSkJPs-WTy8iDTcb0_pad-17" x="27600" y="12900"/><use xlink:href="#uYAXSkJPs-WTy8iDTcb0_pad-17" x="14400" y="10200"/><use xlink:href="#uYAXSkJPs-WTy8iDTcb0_pad-17" x="12825" y="14250"/><use xlink:href="#uYAXSkJPs-WTy8iDTcb0_pad-17" x="6525" y="10500"/><use xlink:href="#uYAXSkJPs-WTy8iDTcb0_pad-17" x="27300" y="28725"/><use xlink:href="#uYAXSkJPs-WTy8iDTcb0_pad-17" x="19500" y="23550"/><use xlink:href="#uYAXSkJPs-WTy8iDTcb0_pad-17" x="31500" y="9150"/><path d="M 7950 27075 5400 27075 M 7950 27075 8025 27000" fill="none" stroke-width="200"/><use xlink:href="#uYAXSkJPs-WTy8iDTcb0_pad-17" x="5400" y="27075"/><use xlink:href="#uYAXSkJPs-WTy8iDTcb0_pad-17" x="8025" y="27000"/><path d="M 13650 19275 13650 18525 M 14137.5 18037.5 14700 17475 M 14137.5 18037.5 13650 18525 M 14137.5 18037.5 12675 16575 12600 16575 10575 14550 10575 13725" fill="none" stroke-width="150"/><use xlink:href="#uYAXSkJPs-WTy8iDTcb0_pad-17" x="13650" y="19275"/><use xlink:href="#uYAXSkJPs-WTy8iDTcb0_pad-17" x="14700" y="17475"/><use xlink:href="#uYAXSkJPs-WTy8iDTcb0_pad-17" x="10575" y="13725"/><use xlink:href="#uYAXSkJPs-WTy8iDTcb0_pad-17" x="27600" y="26250"/><use xlink:href="#uYAXSkJPs-WTy8iDTcb0_pad-17" x="12075" y="13500"/><path d="M 36750 23700 36750 30375 36825 30450 36830 30500 M 27450 7800 27450 2100 M 27450 7800 27450 11775 M 27450 2100 27500 2100 M 27450 7800 27600 7800 M 27450 2025 26475 1050 M 27450 2025 27500 2100 M 6225 21150 6225 21375 M 6225 21150 3450 18375 M 14550 16275 14550 13575 14700 13425 14700 12675 14550 12525 14550 12075 14925 11700 15675 11700 M 16500 16500 16500 18000 M 16500 16500 15750 15750 15750 11700 15675 11700 M 15750 18675 15750 19425 M 15750 18675 16425 18000 16500 18000" fill="none" stroke-width="200"/><use xlink:href="#uYAXSkJPs-WTy8iDTcb0_pad-17" x="36750" y="23700"/><use xlink:href="#uYAXSkJPs-WTy8iDTcb0_pad-17" x="27450" y="11775"/><use xlink:href="#uYAXSkJPs-WTy8iDTcb0_pad-17" x="27600" y="7800"/><use xlink:href="#uYAXSkJPs-WTy8iDTcb0_pad-17" x="26475" y="1050"/><use xlink:href="#uYAXSkJPs-WTy8iDTcb0_pad-17" x="6225" y="21375"/><use xlink:href="#uYAXSkJPs-WTy8iDTcb0_pad-17" x="3450" y="18375"/><use xlink:href="#uYAXSkJPs-WTy8iDTcb0_pad-17" x="14550" y="16275"/><use xlink:href="#uYAXSkJPs-WTy8iDTcb0_pad-17" x="15675" y="11700"/><use xlink:href="#uYAXSkJPs-WTy8iDTcb0_pad-17" x="16500" y="18000"/><use xlink:href="#uYAXSkJPs-WTy8iDTcb0_pad-17" x="15750" y="19425"/><use xlink:href="#uYAXSkJPs-WTy8iDTcb0_pad-17" x="27600" y="14025"/><path d="M 25050 14550 25050 12525 M 25050 14550 25050 15450 M 25050 12525 24450 11925 M 31800 33450 32325 33450 34200 31575 34800 31575 35700 30675 35700 22125 36825 21000 36825 18300 M 31800 33450 31750 33500 M 27825 14550 25050 14550 M 27825 14550 32550 9825" fill="none" stroke-width="150"/><use xlink:href="#uYAXSkJPs-WTy8iDTcb0_pad-17" x="16500" y="13650"/><use xlink:href="#uYAXSkJPs-WTy8iDTcb0_pad-17" x="12150" y="14700"/><use xlink:href="#uYAXSkJPs-WTy8iDTcb0_pad-17" x="25050" y="15450"/><use xlink:href="#uYAXSkJPs-WTy8iDTcb0_pad-17" x="24450" y="11925"/><use xlink:href="#uYAXSkJPs-WTy8iDTcb0_pad-17" x="36825" y="18300"/><use xlink:href="#uYAXSkJPs-WTy8iDTcb0_pad-17" x="32550" y="9825"/><path d="M 24075 11400 24075 11550 23925 11700 23925 15150 M 28050 13425 33525 7950 M 28050 13425 26700 13425 24675 11400 24075 11400 24075 11175" fill="none" stroke-width="150"/><use xlink:href="#uYAXSkJPs-WTy8iDTcb0_pad-17" x="31800" y="24600"/><use xlink:href="#uYAXSkJPs-WTy8iDTcb0_pad-17" x="24075" y="11175"/><use xlink:href="#uYAXSkJPs-WTy8iDTcb0_pad-17" x="23925" y="15150"/><use xlink:href="#uYAXSkJPs-WTy8iDTcb0_pad-17" x="33525" y="7950"/><use xlink:href="#uYAXSkJPs-WTy8iDTcb0_pad-17" x="12300" y="15450"/><path d="M 3450 21900 3450 24075 M 3450 21900 3450 20175 M 3450 24075 3900 24525 3900 27225 9075 32400 10350 32400 11400 33450 11430 33500 M 10800 21075 9150 21075 8325 21900 3450 21900 M 34500 14100 34500 10050 M 34500 14100 32250 16350 32250 17925 29625 20550 M 15225 20550 11325 20550 M 15225 20550 29625 20550 M 11325 20550 10800 21075 M 15150 17175 15150 12300 M 15150 17175 15225 17250 15225 20550" fill="none" stroke-width="150"/><use xlink:href="#uYAXSkJPs-WTy8iDTcb0_pad-17" x="3450" y="20175"/><use xlink:href="#uYAXSkJPs-WTy8iDTcb0_pad-17" x="10800" y="21075"/><use xlink:href="#uYAXSkJPs-WTy8iDTcb0_pad-17" x="34500" y="10050"/><use xlink:href="#uYAXSkJPs-WTy8iDTcb0_pad-17" x="15150" y="12300"/><use xlink:href="#uYAXSkJPs-WTy8iDTcb0_pad-17" x="4350" y="16650"/><use xlink:href="#uYAXSkJPs-WTy8iDTcb0_pad-17" x="12150" y="21600"/><path d="M 4725 18375 4725 17475 13425 8775 13425 8400 13725 8100 23775 8100 26850 11175" fill="none" stroke-width="150"/><use xlink:href="#uYAXSkJPs-WTy8iDTcb0_pad-17" x="4725" y="18375"/><use xlink:href="#uYAXSkJPs-WTy8iDTcb0_pad-17" x="26850" y="11175"/><use xlink:href="#uYAXSkJPs-WTy8iDTcb0_pad-17" x="29400" y="15000"/><path d="M 12825 15000 12825 16050 M 12825 15000 13575 14250 13575 12525 14925 11175 15900 11175 16725 12000 16725 12075 17325 12675 19050 12675 M 19837.5 13462.5 20175 13800 M 19837.5 13462.5 19050 12675 M 20175 13800 20175 17325 21000 18150 22050 18150 22725 17475 22725 15900 22950 15675 24300 15675 25500 16875 25500 16900 M 19800 13500 19725 13500 M 19800 13500 19837.5 13462.5 M 26700 33450 27675 33450 29250 31875 31950 31875 32850 30975 32850 27750 32250 27150 M 26700 33450 26670 33500" fill="none" stroke-width="150"/><use xlink:href="#uYAXSkJPs-WTy8iDTcb0_pad-17" x="12825" y="16050"/><use xlink:href="#uYAXSkJPs-WTy8iDTcb0_pad-17" x="19725" y="13500"/><use xlink:href="#uYAXSkJPs-WTy8iDTcb0_pad-17" x="32250" y="27150"/><path d="M 28425 15975 28425 15675 M 28425 15975 27500 16900" fill="none" stroke-width="150"/><use xlink:href="#uYAXSkJPs-WTy8iDTcb0_pad-17" x="25500" y="4575"/><use xlink:href="#uYAXSkJPs-WTy8iDTcb0_pad-17" x="28425" y="15675"/><use xlink:href="#uYAXSkJPs-WTy8iDTcb0_pad-17" x="12525" y="17250"/><path d="M 23475 17175 23475 16950 M 23475 17175 20625 20025 M 23475 16950 23500 16900 M 26175 15825 26175 15075 M 26175 15825 26250 15900 26250 17925 26025 18150 24375 18150 23475 17250 23500 16900" fill="none" stroke-width="150"/><use xlink:href="#uYAXSkJPs-WTy8iDTcb0_pad-17" x="12525" y="18000"/><use xlink:href="#uYAXSkJPs-WTy8iDTcb0_pad-17" x="20625" y="20025"/><use xlink:href="#uYAXSkJPs-WTy8iDTcb0_pad-17" x="26250" y="4425"/><use xlink:href="#uYAXSkJPs-WTy8iDTcb0_pad-17" x="26175" y="15075"/><use xlink:href="#uYAXSkJPs-WTy8iDTcb0_pad-17" x="12900" y="19275"/><use xlink:href="#uYAXSkJPs-WTy8iDTcb0_pad-17" x="20700" y="13725"/><path d="M 12975 10875 12525 10875 M 12975 10875 14325 9525 18000 9525 18000 9500" fill="none" stroke-width="150"/><use xlink:href="#uYAXSkJPs-WTy8iDTcb0_pad-17" x="12525" y="10875"/><use xlink:href="#uYAXSkJPs-WTy8iDTcb0_pad-17" x="33825" y="22950"/><path d="M 20700 12975 19800 12975 18375 11550 18000 11550 18000 11500" fill="none" stroke-width="150"/><use xlink:href="#uYAXSkJPs-WTy8iDTcb0_pad-17" x="26325" y="22350"/><use xlink:href="#uYAXSkJPs-WTy8iDTcb0_pad-17" x="20700" y="12975"/><use xlink:href="#uYAXSkJPs-WTy8iDTcb0_pad-17" x="12225" y="12000"/><path d="M 18000 21450 16500 22950 M 18000 21500 18000 21450" fill="none" stroke-width="150"/><use xlink:href="#uYAXSkJPs-WTy8iDTcb0_pad-17" x="16500" y="22950"/><path d="M 1950 9675 1950 9525 M 1950 9675 750 10875 750 14250 2000 15500 M 1950 9525 2000 9500 M 3525 11775 3525 12000 2025 13500 2000 13500 M 8175 28500 11100 28500 12750 30150 12750 30975 13800 32025 28650 32025 29100 31575 30675 31575 31750 30500" fill="none" stroke-width="150"/><use xlink:href="#uYAXSkJPs-WTy8iDTcb0_pad-17" x="3525" y="11775"/><use xlink:href="#uYAXSkJPs-WTy8iDTcb0_pad-17" x="8175" y="28500"/><path d="M 16500 15975 16500 14400 M 16500 15975 18000 17475 18000 17500" fill="none" stroke-width="150"/><use xlink:href="#uYAXSkJPs-WTy8iDTcb0_pad-17" x="3525" y="10650"/><use xlink:href="#uYAXSkJPs-WTy8iDTcb0_pad-17" x="16500" y="14400"/><path d="M 13950 8625 23550 8625 27225 12300 27675 12300 28575 11400 28575 5025" fill="none" stroke-width="150"/><use xlink:href="#uYAXSkJPs-WTy8iDTcb0_pad-17" x="13950" y="8625"/><use xlink:href="#uYAXSkJPs-WTy8iDTcb0_pad-17" x="28575" y="5025"/><use xlink:href="#uYAXSkJPs-WTy8iDTcb0_pad-17" x="6825" y="11925"/><use xlink:href="#uYAXSkJPs-WTy8iDTcb0_pad-17" x="4725" y="10500"/><use xlink:href="#uYAXSkJPs-WTy8iDTcb0_pad-17" x="34050" y="3525"/><path d="M 3375 24750 3225 24750 2025 23550 2000 23500 M 2850 16650 3450 16050 M 2850 16650 975 16650 750 16875 750 22275 1950 23475 2000 23500 M 3075 24975 3075 26475 M 3075 24975 3225 24825 3375 24750" fill="none" stroke-width="200"/><use xlink:href="#uYAXSkJPs-WTy8iDTcb0_pad-17" x="13425" y="16575"/><use xlink:href="#uYAXSkJPs-WTy8iDTcb0_pad-17" x="3375" y="24750"/><use xlink:href="#uYAXSkJPs-WTy8iDTcb0_pad-17" x="3450" y="16050"/><use xlink:href="#uYAXSkJPs-WTy8iDTcb0_pad-17" x="3075" y="26475"/><path d="M 11550 21075 13725 21075 18375 25725 32175 25725 34275 27825 34725 27825" fill="none" stroke-width="150"/><use xlink:href="#uYAXSkJPs-WTy8iDTcb0_pad-17" x="11550" y="21075"/><use xlink:href="#uYAXSkJPs-WTy8iDTcb0_pad-17" x="34725" y="27825"/><path d="M 14100 28950 13425 28950 M 14100 28950 15300 30150 15300 30975 16050 31725 27000 31725 28125 30600 28125 30000 31500 26625 M 32775 25125 32775 20550" fill="none" stroke-width="150"/><use xlink:href="#uYAXSkJPs-WTy8iDTcb0_pad-17" x="13425" y="28950"/><use xlink:href="#uYAXSkJPs-WTy8iDTcb0_pad-17" x="31500" y="26625"/><use xlink:href="#uYAXSkJPs-WTy8iDTcb0_pad-17" x="32775" y="20550"/><use xlink:href="#uYAXSkJPs-WTy8iDTcb0_pad-17" x="32775" y="25125"/><use xlink:href="#uYAXSkJPs-WTy8iDTcb0_pad-17" x="6150" y="13650"/><use xlink:href="#uYAXSkJPs-WTy8iDTcb0_pad-17" x="27825" y="15075"/><use xlink:href="#uYAXSkJPs-WTy8iDTcb0_pad-17" x="25800" y="21075"/><path d="M 13800 21675 13350 21675 M 13800 21675 19050 26925 19050 30500" fill="none" stroke-width="150"/><use xlink:href="#uYAXSkJPs-WTy8iDTcb0_pad-17" x="13350" y="21675"/><path d="M 12825 28425 14475 28425 16500 30450 16510 30500" fill="none" stroke-width="150"/><use xlink:href="#uYAXSkJPs-WTy8iDTcb0_pad-17" x="12825" y="28425"/><path d="M 35550 4575 35550 2100 M 35550 4575 40950 9975 M 35550 2100 35500 2100 M 40950 9975 41000 10000" fill="none" stroke-width="200"/><path d="M 30150 12975 30150 16275 29550 16875 29500 16900" fill="none" stroke-width="150"/><use xlink:href="#uYAXSkJPs-WTy8iDTcb0_pad-17" x="5550" y="14250"/><use xlink:href="#uYAXSkJPs-WTy8iDTcb0_pad-17" x="30150" y="12975"/><path d="M 5850 14700 5850 15150 M 5850 14700 8175 12375 8175 11775 9375 10575 9675 10575 M 22500 18900 29550 18900 31500 16950 31500 16900" fill="none" stroke-width="150"/><use xlink:href="#uYAXSkJPs-WTy8iDTcb0_pad-17" x="5850" y="15150"/><use xlink:href="#uYAXSkJPs-WTy8iDTcb0_pad-17" x="9675" y="10575"/><use xlink:href="#uYAXSkJPs-WTy8iDTcb0_pad-17" x="14100" y="13200"/><use xlink:href="#uYAXSkJPs-WTy8iDTcb0_pad-17" x="22500" y="18900"/><path d="M 13125 8325 7725 13725 M 13125 8325 13125 8250 13725 7650 19950 7650 25500 2100" fill="none" stroke-width="150"/><use xlink:href="#uYAXSkJPs-WTy8iDTcb0_pad-17" x="7725" y="13725"/><path d="M 19875 6375 19875 5700 23475 2100 23500 2100" fill="none" stroke-width="150"/><use xlink:href="#uYAXSkJPs-WTy8iDTcb0_pad-17" x="8700" y="12000"/><use xlink:href="#uYAXSkJPs-WTy8iDTcb0_pad-17" x="19875" y="6375"/><path d="M 14550 26325 5250 26325 M 14550 26325 16725 28500 M 28500 22050 28500 21150 M 28500 22050 31875 25425 32325 25425 34200 27300 34950 27300 35250 27600 35250 28050 33900 29400 33825 29400 33150 30075 33150 31125 31875 32400 30975 32400 30825 32550" fill="none" stroke-width="150"/><use xlink:href="#uYAXSkJPs-WTy8iDTcb0_pad-17" x="5250" y="26325"/><use xlink:href="#uYAXSkJPs-WTy8iDTcb0_pad-17" x="16725" y="28500"/><use xlink:href="#uYAXSkJPs-WTy8iDTcb0_pad-17" x="28500" y="21150"/><use xlink:href="#uYAXSkJPs-WTy8iDTcb0_pad-17" x="30825" y="32550"/><path d="M 8475 21300 6975 21300 M 8475 21300 9750 20025 13350 20025 M 40875 30525 41850 30525 M 40875 30525 39000 32400 33825 32400 33075 33150 33075 34125 M 41850 30525 41910 30500" fill="none" stroke-width="150"/><use xlink:href="#uYAXSkJPs-WTy8iDTcb0_pad-17" x="7725" y="10425"/><use xlink:href="#uYAXSkJPs-WTy8iDTcb0_pad-17" x="13350" y="20025"/><use xlink:href="#uYAXSkJPs-WTy8iDTcb0_pad-17" x="6975" y="21300"/><use xlink:href="#uYAXSkJPs-WTy8iDTcb0_pad-17" x="33075" y="34125"/><path d="M 6150 20175 5775 20175 4200 18600 4200 17550 5025 16725 5025 10950 5475 10500" fill="none" stroke-width="150"/><use xlink:href="#uYAXSkJPs-WTy8iDTcb0_pad-17" x="6150" y="20175"/><use xlink:href="#uYAXSkJPs-WTy8iDTcb0_pad-17" x="5475" y="10500"/><path d="M 16575 18750 16875 18750 17250 18375 18975 18375 19275 18075 19275 14775 18000 13500" fill="none" stroke-width="150"/><use xlink:href="#uYAXSkJPs-WTy8iDTcb0_pad-17" x="16575" y="18750"/></g><g id="y64-YA9_OX3RijyYibI8_bottom_drill1"><use xlink:href="#EfanSqdSE7Jl1t5N572v_pad-1" x="4500" y="32000"/><use xlink:href="#EfanSqdSE7Jl1t5N572v_pad-1" x="39500" y="3000"/><use xlink:href="#EfanSqdSE7Jl1t5N572v_pad-2" x="13970" y="30500"/><use xlink:href="#EfanSqdSE7Jl1t5N572v_pad-2" x="16510" y="30500"/><use xlink:href="#EfanSqdSE7Jl1t5N572v_pad-2" x="19050" y="30500"/><use xlink:href="#EfanSqdSE7Jl1t5N572v_pad-2" x="8890" y="30500"/><use xlink:href="#EfanSqdSE7Jl1t5N572v_pad-2" x="11430" y="30500"/><use xlink:href="#EfanSqdSE7Jl1t5N572v_pad-3" x="24130" y="33500"/><use xlink:href="#EfanSqdSE7Jl1t5N572v_pad-3" x="21590" y="33500"/><use xlink:href="#EfanSqdSE7Jl1t5N572v_pad-3" x="19050" y="33500"/><use xlink:href="#EfanSqdSE7Jl1t5N572v_pad-3" x="16510" y="33500"/><use xlink:href="#EfanSqdSE7Jl1t5N572v_pad-3" x="13970" y="33500"/><use xlink:href="#EfanSqdSE7Jl1t5N572v_pad-3" x="11430" y="33500"/><use xlink:href="#EfanSqdSE7Jl1t5N572v_pad-3" x="8890" y="33500"/><use xlink:href="#EfanSqdSE7Jl1t5N572v_pad-3" x="31750" y="30500"/><use xlink:href="#EfanSqdSE7Jl1t5N572v_pad-3" x="41910" y="33500"/><use xlink:href="#EfanSqdSE7Jl1t5N572v_pad-3" x="26670" y="30500"/><use xlink:href="#EfanSqdSE7Jl1t5N572v_pad-3" x="24130" y="30500"/><use xlink:href="#EfanSqdSE7Jl1t5N572v_pad-3" x="21590" y="30500"/><use xlink:href="#EfanSqdSE7Jl1t5N572v_pad-3" x="41910" y="30500"/><use xlink:href="#EfanSqdSE7Jl1t5N572v_pad-3" x="39370" y="30500"/><use xlink:href="#EfanSqdSE7Jl1t5N572v_pad-3" x="36830" y="30500"/><use xlink:href="#EfanSqdSE7Jl1t5N572v_pad-3" x="34290" y="30500"/><use xlink:href="#EfanSqdSE7Jl1t5N572v_pad-3" x="26670" y="33500"/><use xlink:href="#EfanSqdSE7Jl1t5N572v_pad-3" x="29210" y="33500"/><use xlink:href="#EfanSqdSE7Jl1t5N572v_pad-3" x="31750" y="33500"/><use xlink:href="#EfanSqdSE7Jl1t5N572v_pad-3" x="34290" y="33500"/><use xlink:href="#EfanSqdSE7Jl1t5N572v_pad-3" x="36830" y="33500"/><use xlink:href="#EfanSqdSE7Jl1t5N572v_pad-3" x="41000" y="10000"/><use xlink:href="#EfanSqdSE7Jl1t5N572v_pad-3" x="39370" y="33500"/><use xlink:href="#EfanSqdSE7Jl1t5N572v_pad-3" x="29210" y="30500"/><use xlink:href="#EfanSqdSE7Jl1t5N572v_pad-4" x="32550" y="9825"/><use xlink:href="#EfanSqdSE7Jl1t5N572v_pad-4" x="31800" y="24600"/><use xlink:href="#EfanSqdSE7Jl1t5N572v_pad-4" x="24075" y="11175"/><use xlink:href="#EfanSqdSE7Jl1t5N572v_pad-4" x="23925" y="15150"/><use xlink:href="#EfanSqdSE7Jl1t5N572v_pad-4" x="33525" y="7950"/><use xlink:href="#EfanSqdSE7Jl1t5N572v_pad-4" x="12300" y="15450"/><use xlink:href="#EfanSqdSE7Jl1t5N572v_pad-4" x="3450" y="20175"/><use xlink:href="#EfanSqdSE7Jl1t5N572v_pad-4" x="10800" y="21075"/><use xlink:href="#EfanSqdSE7Jl1t5N572v_pad-4" x="34500" y="10050"/><use xlink:href="#EfanSqdSE7Jl1t5N572v_pad-4" x="15150" y="12300"/><use xlink:href="#EfanSqdSE7Jl1t5N572v_pad-4" x="4350" y="16650"/><use xlink:href="#EfanSqdSE7Jl1t5N572v_pad-4" x="12150" y="21600"/><use xlink:href="#EfanSqdSE7Jl1t5N572v_pad-4" x="4725" y="18375"/><use xlink:href="#EfanSqdSE7Jl1t5N572v_pad-4" x="26850" y="11175"/><use xlink:href="#EfanSqdSE7Jl1t5N572v_pad-4" x="29400" y="15000"/><use xlink:href="#EfanSqdSE7Jl1t5N572v_pad-4" x="12825" y="16050"/><use xlink:href="#EfanSqdSE7Jl1t5N572v_pad-4" x="19725" y="13500"/><use xlink:href="#EfanSqdSE7Jl1t5N572v_pad-4" x="32250" y="27150"/><use xlink:href="#EfanSqdSE7Jl1t5N572v_pad-4" x="25500" y="4575"/><use xlink:href="#EfanSqdSE7Jl1t5N572v_pad-4" x="28425" y="15675"/><use xlink:href="#EfanSqdSE7Jl1t5N572v_pad-4" x="12525" y="17250"/><use xlink:href="#EfanSqdSE7Jl1t5N572v_pad-4" x="12525" y="18000"/><use xlink:href="#EfanSqdSE7Jl1t5N572v_pad-4" x="20625" y="20025"/><use xlink:href="#EfanSqdSE7Jl1t5N572v_pad-4" x="26250" y="4425"/><use xlink:href="#EfanSqdSE7Jl1t5N572v_pad-4" x="26175" y="15075"/><use xlink:href="#EfanSqdSE7Jl1t5N572v_pad-4" x="12900" y="19275"/><use xlink:href="#EfanSqdSE7Jl1t5N572v_pad-4" x="20700" y="13725"/><use xlink:href="#EfanSqdSE7Jl1t5N572v_pad-4" x="12525" y="10875"/><use xlink:href="#EfanSqdSE7Jl1t5N572v_pad-4" x="33825" y="22950"/><use xlink:href="#EfanSqdSE7Jl1t5N572v_pad-4" x="26325" y="22350"/><use xlink:href="#EfanSqdSE7Jl1t5N572v_pad-4" x="20700" y="12975"/><use xlink:href="#EfanSqdSE7Jl1t5N572v_pad-4" x="12225" y="12000"/><use xlink:href="#EfanSqdSE7Jl1t5N572v_pad-4" x="16500" y="22950"/><use xlink:href="#EfanSqdSE7Jl1t5N572v_pad-4" x="3525" y="11775"/><use xlink:href="#EfanSqdSE7Jl1t5N572v_pad-4" x="8175" y="28500"/><use xlink:href="#EfanSqdSE7Jl1t5N572v_pad-4" x="3525" y="10650"/><use xlink:href="#EfanSqdSE7Jl1t5N572v_pad-4" x="16500" y="14400"/><use xlink:href="#EfanSqdSE7Jl1t5N572v_pad-4" x="13950" y="8625"/><use xlink:href="#EfanSqdSE7Jl1t5N572v_pad-4" x="35475" y="21600"/><use xlink:href="#EfanSqdSE7Jl1t5N572v_pad-4" x="6825" y="11925"/><use xlink:href="#EfanSqdSE7Jl1t5N572v_pad-4" x="4725" y="10500"/><use xlink:href="#EfanSqdSE7Jl1t5N572v_pad-4" x="34050" y="3525"/><use xlink:href="#EfanSqdSE7Jl1t5N572v_pad-4" x="13425" y="16575"/><use xlink:href="#EfanSqdSE7Jl1t5N572v_pad-4" x="3375" y="24750"/><use xlink:href="#EfanSqdSE7Jl1t5N572v_pad-4" x="3450" y="16050"/><use xlink:href="#EfanSqdSE7Jl1t5N572v_pad-4" x="3075" y="26475"/><use xlink:href="#EfanSqdSE7Jl1t5N572v_pad-4" x="11550" y="21075"/><use xlink:href="#EfanSqdSE7Jl1t5N572v_pad-4" x="34725" y="27825"/><use xlink:href="#EfanSqdSE7Jl1t5N572v_pad-4" x="13425" y="28950"/><use xlink:href="#EfanSqdSE7Jl1t5N572v_pad-4" x="31500" y="26625"/><use xlink:href="#EfanSqdSE7Jl1t5N572v_pad-4" x="32775" y="20550"/><use xlink:href="#EfanSqdSE7Jl1t5N572v_pad-4" x="32775" y="25125"/><use xlink:href="#EfanSqdSE7Jl1t5N572v_pad-4" x="6150" y="13650"/><use xlink:href="#EfanSqdSE7Jl1t5N572v_pad-4" x="27825" y="15075"/><use xlink:href="#EfanSqdSE7Jl1t5N572v_pad-4" x="25800" y="21075"/><use xlink:href="#EfanSqdSE7Jl1t5N572v_pad-4" x="13350" y="21675"/><use xlink:href="#EfanSqdSE7Jl1t5N572v_pad-4" x="12825" y="28425"/><use xlink:href="#EfanSqdSE7Jl1t5N572v_pad-4" x="5550" y="14250"/><use xlink:href="#EfanSqdSE7Jl1t5N572v_pad-4" x="30150" y="12975"/><use xlink:href="#EfanSqdSE7Jl1t5N572v_pad-4" x="5850" y="15150"/><use xlink:href="#EfanSqdSE7Jl1t5N572v_pad-4" x="9675" y="10575"/><use xlink:href="#EfanSqdSE7Jl1t5N572v_pad-4" x="14100" y="13200"/><use xlink:href="#EfanSqdSE7Jl1t5N572v_pad-4" x="22500" y="18900"/><use xlink:href="#EfanSqdSE7Jl1t5N572v_pad-4" x="7725" y="13725"/><use xlink:href="#EfanSqdSE7Jl1t5N572v_pad-4" x="8700" y="12000"/><use xlink:href="#EfanSqdSE7Jl1t5N572v_pad-4" x="19875" y="6375"/><use xlink:href="#EfanSqdSE7Jl1t5N572v_pad-4" x="5250" y="26325"/><use xlink:href="#EfanSqdSE7Jl1t5N572v_pad-4" x="16725" y="28500"/><use xlink:href="#EfanSqdSE7Jl1t5N572v_pad-4" x="28500" y="21150"/><use xlink:href="#EfanSqdSE7Jl1t5N572v_pad-4" x="30825" y="32550"/><use xlink:href="#EfanSqdSE7Jl1t5N572v_pad-4" x="7725" y="10425"/><use xlink:href="#EfanSqdSE7Jl1t5N572v_pad-4" x="13350" y="20025"/><use xlink:href="#EfanSqdSE7Jl1t5N572v_pad-4" x="6975" y="21300"/><use xlink:href="#EfanSqdSE7Jl1t5N572v_pad-4" x="33075" y="34125"/><use xlink:href="#EfanSqdSE7Jl1t5N572v_pad-4" x="6150" y="20175"/><use xlink:href="#EfanSqdSE7Jl1t5N572v_pad-4" x="5475" y="10500"/><use xlink:href="#EfanSqdSE7Jl1t5N572v_pad-4" x="16575" y="18750"/><use xlink:href="#EfanSqdSE7Jl1t5N572v_pad-4" x="36825" y="18300"/><use xlink:href="#EfanSqdSE7Jl1t5N572v_pad-4" x="24450" y="11925"/><use xlink:href="#EfanSqdSE7Jl1t5N572v_pad-4" x="25050" y="15450"/><use xlink:href="#EfanSqdSE7Jl1t5N572v_pad-4" x="12150" y="14700"/><use xlink:href="#EfanSqdSE7Jl1t5N572v_pad-4" x="16500" y="13650"/><use xlink:href="#EfanSqdSE7Jl1t5N572v_pad-4" x="27600" y="14025"/><use xlink:href="#EfanSqdSE7Jl1t5N572v_pad-4" x="15750" y="19425"/><use xlink:href="#EfanSqdSE7Jl1t5N572v_pad-4" x="16500" y="18000"/><use xlink:href="#EfanSqdSE7Jl1t5N572v_pad-4" x="15675" y="11700"/><use xlink:href="#EfanSqdSE7Jl1t5N572v_pad-4" x="14550" y="16275"/><use xlink:href="#EfanSqdSE7Jl1t5N572v_pad-4" x="3450" y="18375"/><use xlink:href="#EfanSqdSE7Jl1t5N572v_pad-4" x="6225" y="21375"/><use xlink:href="#EfanSqdSE7Jl1t5N572v_pad-4" x="26475" y="1050"/><use xlink:href="#EfanSqdSE7Jl1t5N572v_pad-4" x="27600" y="7800"/><use xlink:href="#EfanSqdSE7Jl1t5N572v_pad-4" x="27450" y="11775"/><use xlink:href="#EfanSqdSE7Jl1t5N572v_pad-4" x="36750" y="23700"/><use xlink:href="#EfanSqdSE7Jl1t5N572v_pad-4" x="12075" y="13500"/><use xlink:href="#EfanSqdSE7Jl1t5N572v_pad-4" x="27600" y="26250"/><use xlink:href="#EfanSqdSE7Jl1t5N572v_pad-4" x="10575" y="13725"/><use xlink:href="#EfanSqdSE7Jl1t5N572v_pad-4" x="14700" y="17475"/><use xlink:href="#EfanSqdSE7Jl1t5N572v_pad-4" x="13650" y="19275"/><use xlink:href="#EfanSqdSE7Jl1t5N572v_pad-4" x="8025" y="27000"/><use xlink:href="#EfanSqdSE7Jl1t5N572v_pad-4" x="5400" y="27075"/><use xlink:href="#EfanSqdSE7Jl1t5N572v_pad-4" x="31500" y="9150"/><use xlink:href="#EfanSqdSE7Jl1t5N572v_pad-4" x="19500" y="23550"/><use xlink:href="#EfanSqdSE7Jl1t5N572v_pad-4" x="27300" y="28725"/><use xlink:href="#EfanSqdSE7Jl1t5N572v_pad-4" x="6525" y="10500"/><use xlink:href="#EfanSqdSE7Jl1t5N572v_pad-4" x="12825" y="14250"/><use xlink:href="#EfanSqdSE7Jl1t5N572v_pad-4" x="14400" y="10200"/><use xlink:href="#EfanSqdSE7Jl1t5N572v_pad-4" x="27600" y="12900"/><use xlink:href="#EfanSqdSE7Jl1t5N572v_pad-4" x="28575" y="5025"/></g><clipPath id="y64-YA9_OX3RijyYibI8_bottom_outline"><path d="M 0 7500 1.9 7456.4 7.6 7413.2 17 7370.6 30.2 7329 46.8 7288.7 67 7250 90.4 7213.2 117 7178.6 146.4 7146.4 178.6 7117 213.2 7090.4 250 7067 288.7 7046.8 329 7030.2 370.6 7017 413.2 7007.6 456.4 7001.9 500 7000 18500 7000 18543.6 6998.1 18586.8 6992.4 18629.4 6983 18671 6969.8 18711.3 6953.2 18750 6933 18786.8 6909.6 18821.4 6883 18853.6 6853.6 18883 6821.4 18909.6 6786.8 18933 6750 18953.2 6711.3 18969.8 6671 18983 6629.4 18992.4 6586.8 18998.1 6543.6 19000 6500 19000 500 19001.9 456.4 19007.6 413.2 19017 370.6 19030.2 329 19046.8 288.7 19067 250 19090.4 213.2 19117 178.6 19146.4 146.4 19178.6 117 19213.2 90.4 19250 67 19288.7 46.8 19329 30.2 19370.6 17 19413.2 7.6 19456.4 1.9 19500 0 43500 0 43543.6 1.9 43586.8 7.6 43629.4 17 43671 30.2 43711.3 46.8 43750 67 43786.8 90.4 43821.4 117 43853.6 146.5 43883 178.6 43909.6 213.2 43933 250 43953.2 288.7 43969.8 329 43983 370.6 43992.4 413.2 43998.1 456.4 44000 500 44000 11500 43998.1 11543.6 43992.4 11586.8 43983 11629.4 43969.8 11671 43953.2 11711.3 43933 11750 43909.6 11786.8 43883 11821.4 43853.6 11853.6 43821.4 11883 43786.8 11909.6 43750 11933 43711.3 11953.2 43671 11969.8 43629.4 11983 43586.8 11992.4 43543.6 11998.1 43500 12000 38500 12000 38456.4 12001.9 38413.2 12007.6 38370.6 12017 38329 12030.2 38288.7 12046.8 38250 12067 38213.2 12090.4 38178.6 12117 38146.4 12146.4 38117 12178.6 38090.4 12213.2 38067 12250 38046.8 12288.7 38030.2 12329 38017 12370.6 38007.6 12413.2 38001.9 12456.4 38000 12500 38000 28500 38001.9 28543.6 38007.6 28586.8 38017 28629.4 38030.2 28671 38046.8 28711.3 38067 28750 38090.4 28786.8 38117 28821.4 38146.4 28853.6 38178.6 28883 38213.2 28909.6 38250 28933 38288.7 28953.2 38329 28969.8 38370.6 28983 38413.2 28992.4 38456.4 28998.1 38500 29000 38500 29000 43500 29000 43543.6 29001.9 43586.8 29007.6 43629.4 29017 43671 29030.2 43711.3 29046.8 43750 29067 43786.8 29090.4 43821.4 29117 43853.6 29146.4 43883 29178.6 43909.6 29213.2 43933 29250 43953.2 29288.7 43969.8 29329 43983 29370.6 43992.4 29413.2 43998.1 29456.4 44000 29500 44000 34500 43998.1 34543.6 43992.4 34586.8 43983 34629.4 43969.8 34671 43953.2 34711.3 43933 34750 43909.6 34786.8 43883 34821.4 43853.6 34853.6 43821.4 34883 43786.8 34909.6 43750 34933 43711.3 34953.2 43671 34969.8 43629.4 34983 43586.8 34992.4 43543.6 34998.1 43500 35000 500 35000 456.4 34998.1 413.2 34992.4 370.6 34983 329 34969.8 288.7 34953.2 250 34933 213.2 34909.6 178.6 34883 146.4 34853.6 117 34821.4 90.4 34786.8 67 34750 46.8 34711.3 30.2 34671 17 34629.4 7.6 34586.8 1.9 34543.6 0 34500 0 7500 M 5600 31956.8 5593.2 31870.6 5579.7 31785.2 5559.5 31701.2 5532.8 31619 5499.7 31539.1 5460.5 31462.1 5415.3 31388.4 5364.5 31318.5 5308.4 31252.7 5247.3 31191.6 5181.5 31135.5 5111.6 31084.7 5037.9 31039.5 4960.9 31000.3 4881 30967.2 4798.8 30940.5 4714.8 30920.3 4629.4 30906.8 4543.2 30900 4456.8 30900 4370.6 30906.8 4285.2 30920.3 4201.2 30940.5 4119 30967.2 4039.1 31000.3 3962.1 31039.5 3888.4 31084.7 3818.5 31135.5 3752.7 31191.6 3691.6 31252.7 3635.5 31318.5 3584.7 31388.4 3539.5 31462.1 3500.3 31539.1 3467.2 31619 3440.5 31701.2 3420.3 31785.2 3406.8 31870.6 3400 31956.8 3400 32043.2 3406.8 32129.4 3420.3 32214.8 3440.5 32298.8 3467.2 32381 3500.3 32460.9 3539.5 32537.9 3584.7 32611.6 3635.5 32681.5 3691.6 32747.3 3752.7 32808.4 3818.5 32864.5 3888.4 32915.3 3962.1 32960.5 4039.1 32999.7 4119 33032.8 4201.2 33059.5 4285.2 33079.7 4370.6 33093.2 4456.8 33100 4543.2 33100 4629.4 33093.2 4714.8 33079.7 4798.8 33059.5 4881 33032.8 4960.9 32999.7 5037.9 32960.5 5111.6 32915.3 5181.5 32864.5 5247.3 32808.4 5308.4 32747.3 5364.5 32681.5 5415.3 32611.6 5460.5 32537.9 5499.7 32460.9 5532.8 32381 5559.5 32298.8 5579.7 32214.8 5593.2 32129.4 5600 32043.2 5600 31956.8 M 40600 2956.8 40593.2 2870.6 40579.7 2785.2 40559.5 2701.2 40532.8 2619 40499.7 2539.1 40460.5 2462.1 40415.3 2388.4 40364.5 2318.5 40308.4 2252.7 40247.3 2191.6 40181.5 2135.5 40111.6 2084.7 40037.9 2039.5 39960.9 2000.3 39881 1967.2 39798.8 1940.5 39714.8 1920.3 39629.4 1906.8 39543.2 1900 39456.8 1900 39370.6 1906.8 39285.2 1920.3 39201.2 1940.5 39119 1967.2 39039.1 2000.3 38962.1 2039.5 38888.4 2084.7 38818.5 2135.5 38752.7 2191.6 38691.6 2252.7 38635.5 2318.5 38584.7 2388.4 38539.5 2462.1 38500.3 2539.1 38467.2 2619 38440.5 2701.2 38420.3 2785.2 38406.8 2870.6 38400 2956.8 38400 3043.2 38406.8 3129.4 38420.3 3214.8 38440.5 3298.8 38467.2 3381 38500.3 3460.9 38539.5 3537.9 38584.7 3611.6 38635.5 3681.5 38691.6 3747.3 38752.7 3808.4 38818.5 3864.5 38888.4 3915.3 38962.1 3960.5 39039.1 3999.7 39119 4032.8 39201.2 4059.5 39285.2 4079.7 39370.6 4093.2 39456.8 4100 39543.2 4100 39629.4 4093.2 39714.8 4079.7 39798.8 4059.5 39881 4032.8 39960.9 3999.7 40037.9 3960.5 40111.6 3915.3 40181.5 3864.5 40247.3 3808.4 40308.4 3747.3 40364.5 3681.5 40415.3 3611.6 40460.5 3537.9 40499.7 3460.9 40532.8 3381 40559.5 3298.8 40579.7 3214.8 40593.2 3129.4 40600 3043.2 40600 2956.8" fill="none" stroke-width="254"/></clipPath><mask id="y64-YA9_OX3RijyYibI8_bottom_mech-mask"><g fill="#000" stroke="#000"><rect x="0" y="0" width="44000" height="35000" fill="#fff"/><use xlink:href="#y64-YA9_OX3RijyYibI8_bottom_drill1"/></g></mask><mask id="y64-YA9_OX3RijyYibI8_bottom_cf-mask"><g fill="#fff" stroke="#fff"><use xlink:href="#y64-YA9_OX3RijyYibI8_bottom_soldermask"/></g></mask><mask id="y64-YA9_OX3RijyYibI8_bottom_sm-mask"><g fill="#000" stroke="#000"><rect x="0" y="0" width="44000" height="35000" fill="#fff"/><use xlink:href="#y64-YA9_OX3RijyYibI8_bottom_soldermask"/></g></mask></defs><g transform="translate(0,35000) scale(1,-1)"><g mask="url(#y64-YA9_OX3RijyYibI8_bottom_mech-mask)" clip-path="url(#y64-YA9_OX3RijyYibI8_bottom_outline)" transform="translate(44000,0) scale(-1,1)"><rect x="0" y="0" width="44000" height="35000" fill="currentColor" class="y64-YA9_OX3RijyYibI8_fr4"/><use xlink:href="#y64-YA9_OX3RijyYibI8_bottom_copper" fill="currentColor" stroke="currentColor" class="y64-YA9_OX3RijyYibI8_cu"/><use xlink:href="#y64-YA9_OX3RijyYibI8_bottom_copper" fill="currentColor" stroke="currentColor" class="y64-YA9_OX3RijyYibI8_cf" mask="url(#y64-YA9_OX3RijyYibI8_bottom_cf-mask)"/><g mask="url(#y64-YA9_OX3RijyYibI8_bottom_sm-mask)"><rect x="0" y="0" width="44000" height="35000" fill="currentColor" class="y64-YA9_OX3RijyYibI8_sm"/><use xlink:href="#y64-YA9_OX3RijyYibI8_bottom_silkscreen" fill="currentColor" stroke="currentColor" class="y64-YA9_OX3RijyYibI8_ss"/></g><use xlink:href="#y64-YA9_OX3RijyYibI8_bottom_solderpaste" fill="currentColor" stroke="currentColor" class="y64-YA9_OX3RijyYibI8_sp"/></g></g></svg>