M48
;GenerationSoftware,Autodesk,EAGLE,9.4.2*%
;CreationDate,2019-07-04T09:30:01Z*%
FMAT,2
ICI,OFF
METRIC,TZ,000.000
T4C0.300
T3C1.000
T2C1.016
T1C2.200
%
G90
M71
T1
X4500Y32000
X39500Y3000
T2
X13970Y30500
X16510Y30500
X19050Y30500
X8890Y30500
X11430Y30500
T3
X24130Y33500
X21590Y33500
X19050Y33500
X16510Y33500
X13970Y33500
X11430Y33500
X8890Y33500
X31750Y30500
X41910Y33500
X26670Y30500
X24130Y30500
X21590Y30500
X41910Y30500
X39370Y30500
X36830Y30500
X34290Y30500
X26670Y33500
X29210Y33500
X31750Y33500
X34290Y33500
X36830Y33500
X41000Y10000
X39370Y33500
X29210Y30500
T4
X32550Y9825
X31800Y24600
X24075Y11175
X23925Y15150
X33525Y7950
X12300Y15450
X3450Y20175
X10800Y21075
X34500Y10050
X15150Y12300
X4350Y16650
X12150Y21600
X4725Y18375
X26850Y11175
X29400Y15000
X12825Y16050
X19725Y13500
X32250Y27150
X25500Y4575
X28425Y15675
X12525Y17250
X12525Y18000
X20625Y20025
X26250Y4425
X26175Y15075
X12900Y19275
X20700Y13725
X12525Y10875
X33825Y22950
X26325Y22350
X20700Y12975
X12225Y12000
X16500Y22950
X3525Y11775
X8175Y28500
X3525Y10650
X16500Y14400
X13950Y8625
X35475Y21600
X6825Y11925
X4725Y10500
X34050Y3525
X13425Y16575
X3375Y24750
X3450Y16050
X3075Y26475
X11550Y21075
X34725Y27825
X13425Y28950
X31500Y26625
X32775Y20550
X32775Y25125
X6150Y13650
X27825Y15075
X25800Y21075
X13350Y21675
X12825Y28425
X5550Y14250
X30150Y12975
X5850Y15150
X9675Y10575
X14100Y13200
X22500Y18900
X7725Y13725
X8700Y12000
X19875Y6375
X5250Y26325
X16725Y28500
X28500Y21150
X30825Y32550
X7725Y10425
X13350Y20025
X6975Y21300
X33075Y34125
X6150Y20175
X5475Y10500
X16575Y18750
X36825Y18300
X24450Y11925
X25050Y15450
X12150Y14700
X16500Y13650
X27600Y14025
X15750Y19425
X16500Y18000
X15675Y11700
X14550Y16275
X3450Y18375
X6225Y21375
X26475Y1050
X27600Y7800
X27450Y11775
X36750Y23700
X12075Y13500
X27600Y26250
X10575Y13725
X14700Y17475
X13650Y19275
X8025Y27000
X5400Y27075
X31500Y9150
X19500Y23550
X27300Y28725
X6525Y10500
X12825Y14250
X14400Y10200
X27600Y12900
X28575Y5025
M30