G04 EAGLE Gerber RS-274X export*
G75*
%MOMM*%
%FSLAX34Y34*%
%LPD*%
%IN*%
%IPPOS*%
%AMOC8*
5,1,8,0,0,1.08239X$1,22.5*%
G01*
%ADD10C,0.254000*%


D10*
X0Y75000D02*
X19Y74564D01*
X76Y74132D01*
X170Y73706D01*
X302Y73290D01*
X468Y72887D01*
X670Y72500D01*
X904Y72132D01*
X1170Y71786D01*
X1464Y71464D01*
X1786Y71170D01*
X2132Y70904D01*
X2500Y70670D01*
X2887Y70468D01*
X3290Y70302D01*
X3706Y70170D01*
X4132Y70076D01*
X4564Y70019D01*
X5000Y70000D01*
X185000Y70000D01*
X185436Y69981D01*
X185868Y69924D01*
X186294Y69830D01*
X186710Y69698D01*
X187113Y69532D01*
X187500Y69330D01*
X187868Y69096D01*
X188214Y68830D01*
X188536Y68536D01*
X188830Y68214D01*
X189096Y67868D01*
X189330Y67500D01*
X189532Y67113D01*
X189698Y66710D01*
X189830Y66294D01*
X189924Y65868D01*
X189981Y65436D01*
X190000Y65000D01*
X190000Y5000D01*
X190019Y4564D01*
X190076Y4132D01*
X190170Y3706D01*
X190302Y3290D01*
X190468Y2887D01*
X190670Y2500D01*
X190904Y2132D01*
X191170Y1786D01*
X191464Y1464D01*
X191786Y1170D01*
X192132Y904D01*
X192500Y670D01*
X192887Y468D01*
X193290Y302D01*
X193706Y170D01*
X194132Y76D01*
X194564Y19D01*
X195000Y0D01*
X435000Y0D01*
X435436Y19D01*
X435868Y76D01*
X436294Y170D01*
X436710Y302D01*
X437113Y468D01*
X437500Y670D01*
X437868Y904D01*
X438214Y1170D01*
X438536Y1465D01*
X438830Y1786D01*
X439096Y2132D01*
X439330Y2500D01*
X439532Y2887D01*
X439698Y3290D01*
X439830Y3706D01*
X439924Y4132D01*
X439981Y4564D01*
X440000Y5000D01*
X440000Y115000D01*
X439981Y115436D01*
X439924Y115868D01*
X439830Y116294D01*
X439698Y116710D01*
X439532Y117113D01*
X439330Y117500D01*
X439096Y117868D01*
X438830Y118214D01*
X438536Y118536D01*
X438214Y118830D01*
X437868Y119096D01*
X437500Y119330D01*
X437113Y119532D01*
X436710Y119698D01*
X436294Y119830D01*
X435868Y119924D01*
X435436Y119981D01*
X435000Y120000D01*
X385000Y120000D01*
X384564Y120019D01*
X384132Y120076D01*
X383706Y120170D01*
X383290Y120302D01*
X382887Y120468D01*
X382500Y120670D01*
X382132Y120904D01*
X381786Y121170D01*
X381464Y121464D01*
X381170Y121786D01*
X380904Y122132D01*
X380670Y122500D01*
X380468Y122887D01*
X380302Y123290D01*
X380170Y123706D01*
X380076Y124132D01*
X380019Y124564D01*
X380000Y125000D01*
X380000Y285000D01*
X380019Y285436D01*
X380076Y285868D01*
X380170Y286294D01*
X380302Y286710D01*
X380468Y287113D01*
X380670Y287500D01*
X380904Y287868D01*
X381170Y288214D01*
X381464Y288536D01*
X381786Y288830D01*
X382132Y289096D01*
X382500Y289330D01*
X382887Y289532D01*
X383290Y289698D01*
X383706Y289830D01*
X384132Y289924D01*
X384564Y289981D01*
X385000Y290000D01*
X385000Y290000D01*
X435000Y290000D01*
X435436Y290019D01*
X435868Y290076D01*
X436294Y290170D01*
X436710Y290302D01*
X437113Y290468D01*
X437500Y290670D01*
X437868Y290904D01*
X438214Y291170D01*
X438536Y291464D01*
X438830Y291786D01*
X439096Y292132D01*
X439330Y292500D01*
X439532Y292887D01*
X439698Y293290D01*
X439830Y293706D01*
X439924Y294132D01*
X439981Y294564D01*
X440000Y295000D01*
X440000Y345000D01*
X439981Y345436D01*
X439924Y345868D01*
X439830Y346294D01*
X439698Y346710D01*
X439532Y347113D01*
X439330Y347500D01*
X439096Y347868D01*
X438830Y348214D01*
X438536Y348536D01*
X438214Y348830D01*
X437868Y349096D01*
X437500Y349330D01*
X437113Y349532D01*
X436710Y349698D01*
X436294Y349830D01*
X435868Y349924D01*
X435436Y349981D01*
X435000Y350000D01*
X5000Y350000D01*
X4564Y349981D01*
X4132Y349924D01*
X3706Y349830D01*
X3290Y349698D01*
X2887Y349532D01*
X2500Y349330D01*
X2132Y349096D01*
X1786Y348830D01*
X1464Y348536D01*
X1170Y348214D01*
X904Y347868D01*
X670Y347500D01*
X468Y347113D01*
X302Y346710D01*
X170Y346294D01*
X76Y345868D01*
X19Y345436D01*
X0Y345000D01*
X0Y75000D01*
X56000Y319568D02*
X55932Y318706D01*
X55797Y317852D01*
X55595Y317012D01*
X55328Y316190D01*
X54997Y315391D01*
X54605Y314621D01*
X54153Y313884D01*
X53645Y313185D01*
X53084Y312527D01*
X52473Y311916D01*
X51815Y311355D01*
X51116Y310847D01*
X50379Y310395D01*
X49609Y310003D01*
X48810Y309672D01*
X47988Y309405D01*
X47148Y309203D01*
X46294Y309068D01*
X45432Y309000D01*
X44568Y309000D01*
X43706Y309068D01*
X42852Y309203D01*
X42012Y309405D01*
X41190Y309672D01*
X40391Y310003D01*
X39621Y310395D01*
X38884Y310847D01*
X38185Y311355D01*
X37527Y311916D01*
X36916Y312527D01*
X36355Y313185D01*
X35847Y313884D01*
X35395Y314621D01*
X35003Y315391D01*
X34672Y316190D01*
X34405Y317012D01*
X34203Y317852D01*
X34068Y318706D01*
X34000Y319568D01*
X34000Y320432D01*
X34068Y321294D01*
X34203Y322148D01*
X34405Y322988D01*
X34672Y323810D01*
X35003Y324609D01*
X35395Y325379D01*
X35847Y326116D01*
X36355Y326815D01*
X36916Y327473D01*
X37527Y328084D01*
X38185Y328645D01*
X38884Y329153D01*
X39621Y329605D01*
X40391Y329997D01*
X41190Y330328D01*
X42012Y330595D01*
X42852Y330797D01*
X43706Y330932D01*
X44568Y331000D01*
X45432Y331000D01*
X46294Y330932D01*
X47148Y330797D01*
X47988Y330595D01*
X48810Y330328D01*
X49609Y329997D01*
X50379Y329605D01*
X51116Y329153D01*
X51815Y328645D01*
X52473Y328084D01*
X53084Y327473D01*
X53645Y326815D01*
X54153Y326116D01*
X54605Y325379D01*
X54997Y324609D01*
X55328Y323810D01*
X55595Y322988D01*
X55797Y322148D01*
X55932Y321294D01*
X56000Y320432D01*
X56000Y319568D01*
X406000Y29568D02*
X405932Y28706D01*
X405797Y27852D01*
X405595Y27012D01*
X405328Y26190D01*
X404997Y25391D01*
X404605Y24621D01*
X404153Y23884D01*
X403645Y23185D01*
X403084Y22527D01*
X402473Y21916D01*
X401815Y21355D01*
X401116Y20847D01*
X400379Y20395D01*
X399609Y20003D01*
X398810Y19672D01*
X397988Y19405D01*
X397148Y19203D01*
X396294Y19068D01*
X395432Y19000D01*
X394568Y19000D01*
X393706Y19068D01*
X392852Y19203D01*
X392012Y19405D01*
X391190Y19672D01*
X390391Y20003D01*
X389621Y20395D01*
X388884Y20847D01*
X388185Y21355D01*
X387527Y21916D01*
X386916Y22527D01*
X386355Y23185D01*
X385847Y23884D01*
X385395Y24621D01*
X385003Y25391D01*
X384672Y26190D01*
X384405Y27012D01*
X384203Y27852D01*
X384068Y28706D01*
X384000Y29568D01*
X384000Y30432D01*
X384068Y31294D01*
X384203Y32148D01*
X384405Y32988D01*
X384672Y33810D01*
X385003Y34609D01*
X385395Y35379D01*
X385847Y36116D01*
X386355Y36815D01*
X386916Y37473D01*
X387527Y38084D01*
X388185Y38645D01*
X388884Y39153D01*
X389621Y39605D01*
X390391Y39997D01*
X391190Y40328D01*
X392012Y40595D01*
X392852Y40797D01*
X393706Y40932D01*
X394568Y41000D01*
X395432Y41000D01*
X396294Y40932D01*
X397148Y40797D01*
X397988Y40595D01*
X398810Y40328D01*
X399609Y39997D01*
X400379Y39605D01*
X401116Y39153D01*
X401815Y38645D01*
X402473Y38084D01*
X403084Y37473D01*
X403645Y36815D01*
X404153Y36116D01*
X404605Y35379D01*
X404997Y34609D01*
X405328Y33810D01*
X405595Y32988D01*
X405797Y32148D01*
X405932Y31294D01*
X406000Y30432D01*
X406000Y29568D01*
M02*
