G04 EAGLE Gerber RS-274X export*
G75*
%MOMM*%
%FSLAX34Y34*%
%LPD*%
%INSoldermask Top*%
%IPPOS*%
%AMOC8*
5,1,8,0,0,1.08239X$1,22.5*%
G01*
%ADD10C,2.350000*%
%ADD11C,1.750000*%
%ADD12C,0.300000*%
%ADD13C,0.273000*%
%ADD14C,0.425000*%
%ADD15C,2.000000*%
%ADD16C,2.029600*%
%ADD17C,1.850000*%
%ADD18C,0.408000*%
%ADD19C,0.445500*%
%ADD20C,0.351500*%
%ADD21C,0.323000*%
%ADD22C,0.402500*%
%ADD23C,0.240000*%
%ADD24C,0.247500*%
%ADD25C,0.287000*%
%ADD26C,0.410000*%
%ADD27R,0.800000X0.800000*%
%ADD28C,0.212000*%
%ADD29C,0.312000*%
%ADD30C,0.306150*%

G36*
X291335Y127472D02*
X291335Y127472D01*
X291401Y127474D01*
X291444Y127492D01*
X291491Y127500D01*
X291548Y127534D01*
X291608Y127559D01*
X291643Y127590D01*
X291684Y127615D01*
X291726Y127666D01*
X291774Y127710D01*
X291796Y127752D01*
X291825Y127789D01*
X291846Y127851D01*
X291877Y127910D01*
X291885Y127964D01*
X291897Y128001D01*
X291896Y128041D01*
X291904Y128095D01*
X291904Y131905D01*
X291893Y131970D01*
X291891Y132036D01*
X291873Y132079D01*
X291865Y132126D01*
X291831Y132183D01*
X291806Y132243D01*
X291775Y132278D01*
X291750Y132319D01*
X291699Y132361D01*
X291655Y132409D01*
X291613Y132431D01*
X291576Y132460D01*
X291514Y132481D01*
X291455Y132512D01*
X291401Y132520D01*
X291364Y132532D01*
X291324Y132531D01*
X291270Y132539D01*
X288730Y132539D01*
X288665Y132528D01*
X288599Y132526D01*
X288556Y132508D01*
X288509Y132500D01*
X288452Y132466D01*
X288392Y132441D01*
X288357Y132410D01*
X288316Y132385D01*
X288275Y132334D01*
X288226Y132290D01*
X288204Y132248D01*
X288175Y132211D01*
X288154Y132149D01*
X288123Y132090D01*
X288115Y132036D01*
X288103Y131999D01*
X288103Y131995D01*
X288103Y131994D01*
X288104Y131959D01*
X288096Y131905D01*
X288096Y128095D01*
X288107Y128030D01*
X288109Y127964D01*
X288127Y127921D01*
X288135Y127874D01*
X288169Y127817D01*
X288194Y127757D01*
X288225Y127722D01*
X288250Y127681D01*
X288301Y127640D01*
X288345Y127591D01*
X288387Y127569D01*
X288424Y127540D01*
X288486Y127519D01*
X288545Y127488D01*
X288599Y127480D01*
X288636Y127468D01*
X288676Y127469D01*
X288730Y127461D01*
X291270Y127461D01*
X291335Y127472D01*
G37*
G36*
X21970Y83107D02*
X21970Y83107D01*
X22036Y83109D01*
X22079Y83127D01*
X22126Y83135D01*
X22183Y83169D01*
X22243Y83194D01*
X22278Y83225D01*
X22319Y83250D01*
X22361Y83301D01*
X22409Y83345D01*
X22431Y83387D01*
X22460Y83424D01*
X22481Y83486D01*
X22512Y83545D01*
X22520Y83599D01*
X22532Y83636D01*
X22531Y83676D01*
X22539Y83730D01*
X22539Y86270D01*
X22528Y86335D01*
X22526Y86401D01*
X22508Y86444D01*
X22500Y86491D01*
X22466Y86548D01*
X22441Y86608D01*
X22410Y86643D01*
X22385Y86684D01*
X22334Y86726D01*
X22290Y86774D01*
X22248Y86796D01*
X22211Y86825D01*
X22149Y86846D01*
X22090Y86877D01*
X22036Y86885D01*
X21999Y86897D01*
X21959Y86896D01*
X21905Y86904D01*
X18095Y86904D01*
X18030Y86893D01*
X17964Y86891D01*
X17921Y86873D01*
X17874Y86865D01*
X17817Y86831D01*
X17757Y86806D01*
X17722Y86775D01*
X17681Y86750D01*
X17640Y86699D01*
X17591Y86655D01*
X17569Y86613D01*
X17540Y86576D01*
X17519Y86514D01*
X17488Y86455D01*
X17480Y86401D01*
X17468Y86364D01*
X17468Y86361D01*
X17469Y86324D01*
X17461Y86270D01*
X17461Y83730D01*
X17472Y83665D01*
X17474Y83599D01*
X17492Y83556D01*
X17500Y83509D01*
X17534Y83452D01*
X17559Y83392D01*
X17590Y83357D01*
X17615Y83316D01*
X17666Y83275D01*
X17710Y83226D01*
X17752Y83204D01*
X17789Y83175D01*
X17851Y83154D01*
X17910Y83123D01*
X17964Y83115D01*
X18001Y83103D01*
X18041Y83104D01*
X18095Y83096D01*
X21905Y83096D01*
X21970Y83107D01*
G37*
D10*
X45000Y320000D03*
X395000Y30000D03*
D11*
X410000Y100000D03*
D12*
X71250Y220250D02*
X71250Y224750D01*
X78750Y224750D01*
X78750Y220250D01*
X71250Y220250D01*
X71250Y223100D02*
X78750Y223100D01*
X71250Y235250D02*
X71250Y239750D01*
X78750Y239750D01*
X78750Y235250D01*
X71250Y235250D01*
X71250Y238100D02*
X78750Y238100D01*
X76250Y260250D02*
X76250Y264750D01*
X83750Y264750D01*
X83750Y260250D01*
X76250Y260250D01*
X76250Y263100D02*
X83750Y263100D01*
X76250Y275250D02*
X76250Y279750D01*
X83750Y279750D01*
X83750Y275250D01*
X76250Y275250D01*
X76250Y278100D02*
X83750Y278100D01*
X173750Y279750D02*
X173750Y275250D01*
X166250Y275250D01*
X166250Y279750D01*
X173750Y279750D01*
X173750Y278100D02*
X166250Y278100D01*
X173750Y264750D02*
X173750Y260250D01*
X166250Y260250D01*
X166250Y264750D01*
X173750Y264750D01*
X173750Y263100D02*
X166250Y263100D01*
X188750Y275250D02*
X188750Y279750D01*
X188750Y275250D02*
X181250Y275250D01*
X181250Y279750D01*
X188750Y279750D01*
X188750Y278100D02*
X181250Y278100D01*
X188750Y264750D02*
X188750Y260250D01*
X181250Y260250D01*
X181250Y264750D01*
X188750Y264750D01*
X188750Y263100D02*
X181250Y263100D01*
X185250Y106250D02*
X189750Y106250D01*
X185250Y106250D02*
X185250Y113750D01*
X189750Y113750D01*
X189750Y106250D01*
X189750Y109100D02*
X185250Y109100D01*
X185250Y111950D02*
X189750Y111950D01*
X174750Y106250D02*
X170250Y106250D01*
X170250Y113750D01*
X174750Y113750D01*
X174750Y106250D01*
X174750Y109100D02*
X170250Y109100D01*
X170250Y111950D02*
X174750Y111950D01*
X185250Y91250D02*
X189750Y91250D01*
X185250Y91250D02*
X185250Y98750D01*
X189750Y98750D01*
X189750Y91250D01*
X189750Y94100D02*
X185250Y94100D01*
X185250Y96950D02*
X189750Y96950D01*
X174750Y91250D02*
X170250Y91250D01*
X170250Y98750D01*
X174750Y98750D01*
X174750Y91250D01*
X174750Y94100D02*
X170250Y94100D01*
X170250Y96950D02*
X174750Y96950D01*
X59750Y236250D02*
X55250Y236250D01*
X55250Y243750D01*
X59750Y243750D01*
X59750Y236250D01*
X59750Y239100D02*
X55250Y239100D01*
X55250Y241950D02*
X59750Y241950D01*
X44750Y236250D02*
X40250Y236250D01*
X40250Y243750D01*
X44750Y243750D01*
X44750Y236250D01*
X44750Y239100D02*
X40250Y239100D01*
X40250Y241950D02*
X44750Y241950D01*
X48750Y129750D02*
X48750Y125250D01*
X41250Y125250D01*
X41250Y129750D01*
X48750Y129750D01*
X48750Y128100D02*
X41250Y128100D01*
X48750Y114750D02*
X48750Y110250D01*
X41250Y110250D01*
X41250Y114750D01*
X48750Y114750D01*
X48750Y113100D02*
X41250Y113100D01*
X63750Y125250D02*
X63750Y129750D01*
X63750Y125250D02*
X56250Y125250D01*
X56250Y129750D01*
X63750Y129750D01*
X63750Y128100D02*
X56250Y128100D01*
X63750Y114750D02*
X63750Y110250D01*
X56250Y110250D01*
X56250Y114750D01*
X63750Y114750D01*
X63750Y113100D02*
X56250Y113100D01*
X14750Y243750D02*
X10250Y243750D01*
X14750Y243750D02*
X14750Y236250D01*
X10250Y236250D01*
X10250Y243750D01*
X10250Y239100D02*
X14750Y239100D01*
X14750Y241950D02*
X10250Y241950D01*
X25250Y243750D02*
X29750Y243750D01*
X29750Y236250D01*
X25250Y236250D01*
X25250Y243750D01*
X25250Y239100D02*
X29750Y239100D01*
X29750Y241950D02*
X25250Y241950D01*
X86250Y224750D02*
X86250Y220250D01*
X86250Y224750D02*
X93750Y224750D01*
X93750Y220250D01*
X86250Y220250D01*
X86250Y223100D02*
X93750Y223100D01*
X86250Y235250D02*
X86250Y239750D01*
X93750Y239750D01*
X93750Y235250D01*
X86250Y235250D01*
X86250Y238100D02*
X93750Y238100D01*
X120250Y221250D02*
X124750Y221250D01*
X120250Y221250D02*
X120250Y228750D01*
X124750Y228750D01*
X124750Y221250D01*
X124750Y224100D02*
X120250Y224100D01*
X120250Y226950D02*
X124750Y226950D01*
X109750Y221250D02*
X105250Y221250D01*
X105250Y228750D01*
X109750Y228750D01*
X109750Y221250D01*
X109750Y224100D02*
X105250Y224100D01*
X105250Y226950D02*
X109750Y226950D01*
X11250Y270250D02*
X11250Y274750D01*
X18750Y274750D01*
X18750Y270250D01*
X11250Y270250D01*
X11250Y273100D02*
X18750Y273100D01*
X11250Y285250D02*
X11250Y289750D01*
X18750Y289750D01*
X18750Y285250D01*
X11250Y285250D01*
X11250Y288100D02*
X18750Y288100D01*
X26250Y274750D02*
X26250Y270250D01*
X26250Y274750D02*
X33750Y274750D01*
X33750Y270250D01*
X26250Y270250D01*
X26250Y273100D02*
X33750Y273100D01*
X26250Y285250D02*
X26250Y289750D01*
X33750Y289750D01*
X33750Y285250D01*
X26250Y285250D01*
X26250Y288100D02*
X33750Y288100D01*
D13*
X275115Y257385D02*
X278885Y257385D01*
X278885Y252615D01*
X275115Y252615D01*
X275115Y257385D01*
X275115Y255208D02*
X278885Y255208D01*
X264885Y257385D02*
X261115Y257385D01*
X264885Y257385D02*
X264885Y252615D01*
X261115Y252615D01*
X261115Y257385D01*
X261115Y255208D02*
X264885Y255208D01*
X275115Y242385D02*
X278885Y242385D01*
X278885Y237615D01*
X275115Y237615D01*
X275115Y242385D01*
X275115Y240208D02*
X278885Y240208D01*
X264885Y242385D02*
X261115Y242385D01*
X264885Y242385D02*
X264885Y237615D01*
X261115Y237615D01*
X261115Y242385D01*
X261115Y240208D02*
X264885Y240208D01*
D14*
X341125Y273375D02*
X341125Y281625D01*
X341125Y273375D02*
X328875Y273375D01*
X328875Y281625D01*
X341125Y281625D01*
X341125Y277412D02*
X328875Y277412D01*
X328875Y281449D02*
X341125Y281449D01*
X341125Y266625D02*
X341125Y258375D01*
X328875Y258375D01*
X328875Y266625D01*
X341125Y266625D01*
X341125Y262412D02*
X328875Y262412D01*
X328875Y266449D02*
X341125Y266449D01*
X371125Y266625D02*
X371125Y258375D01*
X358875Y258375D01*
X358875Y266625D01*
X371125Y266625D01*
X371125Y262412D02*
X358875Y262412D01*
X358875Y266449D02*
X371125Y266449D01*
X371125Y273375D02*
X371125Y281625D01*
X371125Y273375D02*
X358875Y273375D01*
X358875Y281625D01*
X371125Y281625D01*
X371125Y277412D02*
X358875Y277412D01*
X358875Y281449D02*
X371125Y281449D01*
D12*
X78750Y129750D02*
X78750Y125250D01*
X71250Y125250D01*
X71250Y129750D01*
X78750Y129750D01*
X78750Y128100D02*
X71250Y128100D01*
X78750Y114750D02*
X78750Y110250D01*
X71250Y110250D01*
X71250Y114750D01*
X78750Y114750D01*
X78750Y113100D02*
X71250Y113100D01*
D15*
X380000Y105000D03*
X110000Y95000D03*
X15000Y335000D03*
D16*
X139700Y305000D03*
X165100Y305000D03*
X190500Y305000D03*
X88900Y305000D03*
X114300Y305000D03*
D17*
X342900Y305000D03*
X368300Y305000D03*
X393700Y305000D03*
X419100Y305000D03*
D18*
X104710Y259290D02*
X96790Y259290D01*
X96790Y280710D01*
X104710Y280710D01*
X104710Y259290D01*
X104710Y263166D02*
X96790Y263166D01*
X96790Y267042D02*
X104710Y267042D01*
X104710Y270918D02*
X96790Y270918D01*
X96790Y274794D02*
X104710Y274794D01*
X104710Y278670D02*
X96790Y278670D01*
X115290Y259290D02*
X123210Y259290D01*
X115290Y259290D02*
X115290Y280710D01*
X123210Y280710D01*
X123210Y259290D01*
X123210Y263166D02*
X115290Y263166D01*
X115290Y267042D02*
X123210Y267042D01*
X123210Y270918D02*
X115290Y270918D01*
X115290Y274794D02*
X123210Y274794D01*
X123210Y278670D02*
X115290Y278670D01*
D19*
X199977Y264477D02*
X209023Y264477D01*
X199977Y264477D02*
X199977Y275523D01*
X209023Y275523D01*
X209023Y264477D01*
X209023Y268709D02*
X199977Y268709D01*
X199977Y272941D02*
X209023Y272941D01*
D14*
X241375Y264375D02*
X249625Y264375D01*
X241375Y264375D02*
X241375Y275625D01*
X249625Y275625D01*
X249625Y264375D01*
X249625Y268412D02*
X241375Y268412D01*
X241375Y272449D02*
X249625Y272449D01*
D20*
X48493Y286507D02*
X41507Y286507D01*
X41507Y292493D01*
X48493Y292493D01*
X48493Y286507D01*
X48493Y289846D02*
X41507Y289846D01*
X41507Y267507D02*
X48493Y267507D01*
X41507Y267507D02*
X41507Y273493D01*
X48493Y273493D01*
X48493Y267507D01*
X48493Y270846D02*
X41507Y270846D01*
X61507Y277007D02*
X68493Y277007D01*
X61507Y277007D02*
X61507Y282993D01*
X68493Y282993D01*
X68493Y277007D01*
X68493Y280346D02*
X61507Y280346D01*
D13*
X278885Y271885D02*
X278885Y268115D01*
X274115Y268115D01*
X274115Y271885D01*
X278885Y271885D01*
X278885Y270708D02*
X274115Y270708D01*
X278885Y278115D02*
X278885Y281885D01*
X278885Y278115D02*
X274115Y278115D01*
X274115Y281885D01*
X278885Y281885D01*
X278885Y280708D02*
X274115Y280708D01*
X265885Y276885D02*
X265885Y273115D01*
X261115Y273115D01*
X261115Y276885D01*
X265885Y276885D01*
X265885Y275708D02*
X261115Y275708D01*
D12*
X29750Y191250D02*
X25250Y191250D01*
X25250Y198750D01*
X29750Y198750D01*
X29750Y191250D01*
X29750Y194100D02*
X25250Y194100D01*
X25250Y196950D02*
X29750Y196950D01*
X14750Y191250D02*
X10250Y191250D01*
X10250Y198750D01*
X14750Y198750D01*
X14750Y191250D01*
X14750Y194100D02*
X10250Y194100D01*
X10250Y196950D02*
X14750Y196950D01*
X170250Y148750D02*
X174750Y148750D01*
X174750Y141250D01*
X170250Y141250D01*
X170250Y148750D01*
X170250Y144100D02*
X174750Y144100D01*
X174750Y146950D02*
X170250Y146950D01*
X185250Y148750D02*
X189750Y148750D01*
X189750Y141250D01*
X185250Y141250D01*
X185250Y148750D01*
X185250Y144100D02*
X189750Y144100D01*
X189750Y146950D02*
X185250Y146950D01*
X93750Y129750D02*
X93750Y125250D01*
X86250Y125250D01*
X86250Y129750D01*
X93750Y129750D01*
X93750Y128100D02*
X86250Y128100D01*
X93750Y114750D02*
X93750Y110250D01*
X86250Y110250D01*
X86250Y114750D01*
X93750Y114750D01*
X93750Y113100D02*
X86250Y113100D01*
X108750Y125250D02*
X108750Y129750D01*
X108750Y125250D02*
X101250Y125250D01*
X101250Y129750D01*
X108750Y129750D01*
X108750Y128100D02*
X101250Y128100D01*
X108750Y114750D02*
X108750Y110250D01*
X101250Y110250D01*
X101250Y114750D01*
X108750Y114750D01*
X108750Y113100D02*
X101250Y113100D01*
X79750Y98750D02*
X75250Y98750D01*
X79750Y98750D02*
X79750Y91250D01*
X75250Y91250D01*
X75250Y98750D01*
X75250Y94100D02*
X79750Y94100D01*
X79750Y96950D02*
X75250Y96950D01*
X90250Y98750D02*
X94750Y98750D01*
X94750Y91250D01*
X90250Y91250D01*
X90250Y98750D01*
X90250Y94100D02*
X94750Y94100D01*
X94750Y96950D02*
X90250Y96950D01*
X64750Y91250D02*
X60250Y91250D01*
X60250Y98750D01*
X64750Y98750D01*
X64750Y91250D01*
X64750Y94100D02*
X60250Y94100D01*
X60250Y96950D02*
X64750Y96950D01*
X49750Y91250D02*
X45250Y91250D01*
X45250Y98750D01*
X49750Y98750D01*
X49750Y91250D01*
X49750Y94100D02*
X45250Y94100D01*
X45250Y96950D02*
X49750Y96950D01*
X290250Y253750D02*
X294750Y253750D01*
X294750Y246250D01*
X290250Y246250D01*
X290250Y253750D01*
X290250Y249100D02*
X294750Y249100D01*
X294750Y251950D02*
X290250Y251950D01*
X305250Y253750D02*
X309750Y253750D01*
X309750Y246250D01*
X305250Y246250D01*
X305250Y253750D01*
X305250Y249100D02*
X309750Y249100D01*
X309750Y251950D02*
X305250Y251950D01*
X305250Y276250D02*
X309750Y276250D01*
X305250Y276250D02*
X305250Y283750D01*
X309750Y283750D01*
X309750Y276250D01*
X309750Y279100D02*
X305250Y279100D01*
X305250Y281950D02*
X309750Y281950D01*
X294750Y276250D02*
X290250Y276250D01*
X290250Y283750D01*
X294750Y283750D01*
X294750Y276250D01*
X294750Y279100D02*
X290250Y279100D01*
X290250Y281950D02*
X294750Y281950D01*
X305250Y261250D02*
X309750Y261250D01*
X305250Y261250D02*
X305250Y268750D01*
X309750Y268750D01*
X309750Y261250D01*
X309750Y264100D02*
X305250Y264100D01*
X305250Y266950D02*
X309750Y266950D01*
X294750Y261250D02*
X290250Y261250D01*
X290250Y268750D01*
X294750Y268750D01*
X294750Y261250D01*
X294750Y264100D02*
X290250Y264100D01*
X290250Y266950D02*
X294750Y266950D01*
X124750Y236250D02*
X120250Y236250D01*
X120250Y243750D01*
X124750Y243750D01*
X124750Y236250D01*
X124750Y239100D02*
X120250Y239100D01*
X120250Y241950D02*
X124750Y241950D01*
X109750Y236250D02*
X105250Y236250D01*
X105250Y243750D01*
X109750Y243750D01*
X109750Y236250D01*
X109750Y239100D02*
X105250Y239100D01*
X105250Y241950D02*
X109750Y241950D01*
X140050Y218350D02*
X144550Y218350D01*
X144550Y210850D01*
X140050Y210850D01*
X140050Y218350D01*
X140050Y213700D02*
X144550Y213700D01*
X144550Y216550D02*
X140050Y216550D01*
X155050Y218350D02*
X159550Y218350D01*
X159550Y210850D01*
X155050Y210850D01*
X155050Y218350D01*
X155050Y213700D02*
X159550Y213700D01*
X159550Y216550D02*
X155050Y216550D01*
X270250Y198750D02*
X274750Y198750D01*
X274750Y191250D01*
X270250Y191250D01*
X270250Y198750D01*
X270250Y194100D02*
X274750Y194100D01*
X274750Y196950D02*
X270250Y196950D01*
X285250Y198750D02*
X289750Y198750D01*
X289750Y191250D01*
X285250Y191250D01*
X285250Y198750D01*
X285250Y194100D02*
X289750Y194100D01*
X289750Y196950D02*
X285250Y196950D01*
X14750Y123750D02*
X10250Y123750D01*
X14750Y123750D02*
X14750Y116250D01*
X10250Y116250D01*
X10250Y123750D01*
X10250Y119100D02*
X14750Y119100D01*
X14750Y121950D02*
X10250Y121950D01*
X25250Y123750D02*
X29750Y123750D01*
X29750Y116250D01*
X25250Y116250D01*
X25250Y123750D01*
X25250Y119100D02*
X29750Y119100D01*
X29750Y121950D02*
X25250Y121950D01*
X14750Y108750D02*
X10250Y108750D01*
X14750Y108750D02*
X14750Y101250D01*
X10250Y101250D01*
X10250Y108750D01*
X10250Y104100D02*
X14750Y104100D01*
X14750Y106950D02*
X10250Y106950D01*
X25250Y108750D02*
X29750Y108750D01*
X29750Y101250D01*
X25250Y101250D01*
X25250Y108750D01*
X25250Y104100D02*
X29750Y104100D01*
X29750Y106950D02*
X25250Y106950D01*
X185250Y171250D02*
X189750Y171250D01*
X185250Y171250D02*
X185250Y178750D01*
X189750Y178750D01*
X189750Y171250D01*
X189750Y174100D02*
X185250Y174100D01*
X185250Y176950D02*
X189750Y176950D01*
X174750Y171250D02*
X170250Y171250D01*
X170250Y178750D01*
X174750Y178750D01*
X174750Y171250D01*
X174750Y174100D02*
X170250Y174100D01*
X170250Y176950D02*
X174750Y176950D01*
X144750Y233750D02*
X140250Y233750D01*
X144750Y233750D02*
X144750Y226250D01*
X140250Y226250D01*
X140250Y233750D01*
X140250Y229100D02*
X144750Y229100D01*
X144750Y231950D02*
X140250Y231950D01*
X155250Y233750D02*
X159750Y233750D01*
X159750Y226250D01*
X155250Y226250D01*
X155250Y233750D01*
X155250Y229100D02*
X159750Y229100D01*
X159750Y231950D02*
X155250Y231950D01*
X170250Y163750D02*
X174750Y163750D01*
X174750Y156250D01*
X170250Y156250D01*
X170250Y163750D01*
X170250Y159100D02*
X174750Y159100D01*
X174750Y161950D02*
X170250Y161950D01*
X185250Y163750D02*
X189750Y163750D01*
X189750Y156250D01*
X185250Y156250D01*
X185250Y163750D01*
X185250Y159100D02*
X189750Y159100D01*
X189750Y161950D02*
X185250Y161950D01*
D21*
X153385Y91635D02*
X153385Y83365D01*
X148115Y83365D01*
X148115Y91635D01*
X153385Y91635D01*
X153385Y86433D02*
X148115Y86433D01*
X148115Y89501D02*
X153385Y89501D01*
X153385Y128365D02*
X153385Y136635D01*
X153385Y128365D02*
X148115Y128365D01*
X148115Y136635D01*
X153385Y136635D01*
X153385Y131433D02*
X148115Y131433D01*
X148115Y134501D02*
X153385Y134501D01*
X131885Y136635D02*
X131885Y128365D01*
X126615Y128365D01*
X126615Y136635D01*
X131885Y136635D01*
X131885Y131433D02*
X126615Y131433D01*
X126615Y134501D02*
X131885Y134501D01*
X131885Y91635D02*
X131885Y83365D01*
X126615Y83365D01*
X126615Y91635D01*
X131885Y91635D01*
X131885Y86433D02*
X126615Y86433D01*
X126615Y89501D02*
X131885Y89501D01*
D22*
X187262Y190262D02*
X200238Y190262D01*
X187262Y190262D02*
X187262Y197738D01*
X200238Y197738D01*
X200238Y190262D01*
X200238Y194086D02*
X187262Y194086D01*
X239762Y190262D02*
X252738Y190262D01*
X239762Y190262D02*
X239762Y197738D01*
X252738Y197738D01*
X252738Y190262D01*
X252738Y194086D02*
X239762Y194086D01*
X239762Y222262D02*
X252738Y222262D01*
X239762Y222262D02*
X239762Y229738D01*
X252738Y229738D01*
X252738Y222262D01*
X252738Y226086D02*
X239762Y226086D01*
X200238Y222262D02*
X187262Y222262D01*
X187262Y229738D01*
X200238Y229738D01*
X200238Y222262D01*
X200238Y226086D02*
X187262Y226086D01*
D23*
X130200Y187800D02*
X130200Y185200D01*
X130200Y187800D02*
X137800Y187800D01*
X137800Y185200D01*
X130200Y185200D01*
X130200Y187480D02*
X137800Y187480D01*
X130200Y181300D02*
X130200Y178700D01*
X130200Y181300D02*
X137800Y181300D01*
X137800Y178700D01*
X130200Y178700D01*
X130200Y180980D02*
X137800Y180980D01*
X130200Y174800D02*
X130200Y172200D01*
X130200Y174800D02*
X137800Y174800D01*
X137800Y172200D01*
X130200Y172200D01*
X130200Y174480D02*
X137800Y174480D01*
X152200Y174800D02*
X152200Y172200D01*
X152200Y174800D02*
X159800Y174800D01*
X159800Y172200D01*
X152200Y172200D01*
X152200Y174480D02*
X159800Y174480D01*
X152200Y178700D02*
X152200Y181300D01*
X159800Y181300D01*
X159800Y178700D01*
X152200Y178700D01*
X152200Y180980D02*
X159800Y180980D01*
X152200Y185200D02*
X152200Y187800D01*
X159800Y187800D01*
X159800Y185200D01*
X152200Y185200D01*
X152200Y187480D02*
X159800Y187480D01*
D24*
X133487Y158013D02*
X133487Y154987D01*
X133487Y158013D02*
X140513Y158013D01*
X140513Y154987D01*
X133487Y154987D01*
X133487Y157338D02*
X140513Y157338D01*
X133487Y151513D02*
X133487Y148487D01*
X133487Y151513D02*
X140513Y151513D01*
X140513Y148487D01*
X133487Y148487D01*
X133487Y150838D02*
X140513Y150838D01*
X133487Y145013D02*
X133487Y141987D01*
X133487Y145013D02*
X140513Y145013D01*
X140513Y141987D01*
X133487Y141987D01*
X133487Y144338D02*
X140513Y144338D01*
X149487Y145013D02*
X149487Y141987D01*
X149487Y145013D02*
X156513Y145013D01*
X156513Y141987D01*
X149487Y141987D01*
X149487Y144338D02*
X156513Y144338D01*
X149487Y148487D02*
X149487Y151513D01*
X156513Y151513D01*
X156513Y148487D01*
X149487Y148487D01*
X149487Y150838D02*
X156513Y150838D01*
X149487Y154987D02*
X149487Y158013D01*
X156513Y158013D01*
X156513Y154987D01*
X149487Y154987D01*
X149487Y157338D02*
X156513Y157338D01*
D25*
X137565Y246684D02*
X133435Y246684D01*
X133435Y257314D01*
X137565Y257314D01*
X137565Y246684D01*
X137565Y249410D02*
X133435Y249410D01*
X133435Y252136D02*
X137565Y252136D01*
X137565Y254862D02*
X133435Y254862D01*
X142935Y246684D02*
X147065Y246684D01*
X142935Y246684D02*
X142935Y257314D01*
X147065Y257314D01*
X147065Y246684D01*
X147065Y249410D02*
X142935Y249410D01*
X142935Y252136D02*
X147065Y252136D01*
X147065Y254862D02*
X142935Y254862D01*
X152435Y246684D02*
X156565Y246684D01*
X152435Y246684D02*
X152435Y257314D01*
X156565Y257314D01*
X156565Y246684D01*
X156565Y249410D02*
X152435Y249410D01*
X152435Y252136D02*
X156565Y252136D01*
X156565Y254862D02*
X152435Y254862D01*
X152435Y272686D02*
X156565Y272686D01*
X152435Y272686D02*
X152435Y283316D01*
X156565Y283316D01*
X156565Y272686D01*
X156565Y275412D02*
X152435Y275412D01*
X152435Y278138D02*
X156565Y278138D01*
X156565Y280864D02*
X152435Y280864D01*
X137565Y272686D02*
X133435Y272686D01*
X133435Y283316D01*
X137565Y283316D01*
X137565Y272686D01*
X137565Y275412D02*
X133435Y275412D01*
X133435Y278138D02*
X137565Y278138D01*
X137565Y280864D02*
X133435Y280864D01*
D26*
X62700Y192500D02*
X53300Y192500D01*
X107300Y157500D02*
X116700Y157500D01*
X67500Y152700D02*
X67500Y143300D01*
X102500Y197300D02*
X102500Y206700D01*
X62700Y187500D02*
X53300Y187500D01*
X107300Y162500D02*
X116700Y162500D01*
X72500Y152700D02*
X72500Y143300D01*
X97500Y197300D02*
X97500Y206700D01*
X62700Y182500D02*
X53300Y182500D01*
X107300Y167500D02*
X116700Y167500D01*
X77500Y152700D02*
X77500Y143300D01*
X92500Y197300D02*
X92500Y206700D01*
X62700Y177500D02*
X53300Y177500D01*
X107300Y172500D02*
X116700Y172500D01*
X82500Y152700D02*
X82500Y143300D01*
X87500Y197300D02*
X87500Y206700D01*
X62700Y172500D02*
X53300Y172500D01*
X107300Y177500D02*
X116700Y177500D01*
X87500Y152700D02*
X87500Y143300D01*
X82500Y197300D02*
X82500Y206700D01*
X62700Y167500D02*
X53300Y167500D01*
X107300Y182500D02*
X116700Y182500D01*
X92500Y152700D02*
X92500Y143300D01*
X77500Y197300D02*
X77500Y206700D01*
X62700Y162500D02*
X53300Y162500D01*
X107300Y187500D02*
X116700Y187500D01*
X97500Y152700D02*
X97500Y143300D01*
X72500Y197300D02*
X72500Y206700D01*
X62700Y157500D02*
X53300Y157500D01*
X107300Y192500D02*
X116700Y192500D01*
X102500Y152700D02*
X102500Y143300D01*
X67500Y197300D02*
X67500Y206700D01*
D27*
X85000Y187000D03*
X97000Y187000D03*
X97000Y175000D03*
X97000Y163000D03*
X85000Y163000D03*
X73000Y163000D03*
X73000Y175000D03*
X85000Y175000D03*
X73000Y187000D03*
D12*
X306000Y214100D02*
X306000Y218600D01*
X320000Y218600D01*
X320000Y214100D01*
X306000Y214100D01*
X306000Y216950D02*
X320000Y216950D01*
X360000Y218600D02*
X360000Y214100D01*
X360000Y218600D02*
X374000Y218600D01*
X374000Y214100D01*
X360000Y214100D01*
X360000Y216950D02*
X374000Y216950D01*
X306000Y226800D02*
X306000Y231300D01*
X320000Y231300D01*
X320000Y226800D01*
X306000Y226800D01*
X306000Y229650D02*
X320000Y229650D01*
X306000Y205900D02*
X306000Y201400D01*
X306000Y205900D02*
X320000Y205900D01*
X320000Y201400D01*
X306000Y201400D01*
X306000Y204250D02*
X320000Y204250D01*
X306000Y193200D02*
X306000Y188700D01*
X306000Y193200D02*
X320000Y193200D01*
X320000Y188700D01*
X306000Y188700D01*
X306000Y191550D02*
X320000Y191550D01*
X360000Y226800D02*
X360000Y231300D01*
X374000Y231300D01*
X374000Y226800D01*
X360000Y226800D01*
X360000Y229650D02*
X374000Y229650D01*
X360000Y205900D02*
X360000Y201400D01*
X360000Y205900D02*
X374000Y205900D01*
X374000Y201400D01*
X360000Y201400D01*
X360000Y204250D02*
X374000Y204250D01*
X360000Y193200D02*
X360000Y188700D01*
X360000Y193200D02*
X374000Y193200D01*
X374000Y188700D01*
X360000Y188700D01*
X360000Y191550D02*
X374000Y191550D01*
D22*
X46238Y227738D02*
X38762Y227738D01*
X46238Y227738D02*
X46238Y212262D01*
X38762Y212262D01*
X38762Y227738D01*
X38762Y216086D02*
X46238Y216086D01*
X46238Y219910D02*
X38762Y219910D01*
X38762Y223734D02*
X46238Y223734D01*
X46238Y227558D02*
X38762Y227558D01*
X21238Y227738D02*
X13762Y227738D01*
X21238Y227738D02*
X21238Y212262D01*
X13762Y212262D01*
X13762Y227738D01*
X13762Y216086D02*
X21238Y216086D01*
X21238Y219910D02*
X13762Y219910D01*
X13762Y223734D02*
X21238Y223734D01*
X21238Y227558D02*
X13762Y227558D01*
D17*
X215900Y305000D03*
X241300Y305000D03*
X266700Y305000D03*
X292100Y305000D03*
X317500Y305000D03*
X88900Y335000D03*
X114300Y335000D03*
X139700Y335000D03*
X165100Y335000D03*
X190500Y335000D03*
X215900Y335000D03*
X241300Y335000D03*
X266700Y335000D03*
X292100Y335000D03*
X317500Y335000D03*
X342900Y335000D03*
X368300Y335000D03*
X393700Y335000D03*
X419100Y335000D03*
D18*
X351040Y177460D02*
X351040Y160540D01*
X351040Y177460D02*
X358960Y177460D01*
X358960Y160540D01*
X351040Y160540D01*
X351040Y164416D02*
X358960Y164416D01*
X358960Y168292D02*
X351040Y168292D01*
X351040Y172168D02*
X358960Y172168D01*
X358960Y176044D02*
X351040Y176044D01*
X331040Y177460D02*
X331040Y160540D01*
X331040Y177460D02*
X338960Y177460D01*
X338960Y160540D01*
X331040Y160540D01*
X331040Y164416D02*
X338960Y164416D01*
X338960Y168292D02*
X331040Y168292D01*
X331040Y172168D02*
X338960Y172168D01*
X338960Y176044D02*
X331040Y176044D01*
X311040Y177460D02*
X311040Y160540D01*
X311040Y177460D02*
X318960Y177460D01*
X318960Y160540D01*
X311040Y160540D01*
X311040Y164416D02*
X318960Y164416D01*
X318960Y168292D02*
X311040Y168292D01*
X311040Y172168D02*
X318960Y172168D01*
X318960Y176044D02*
X311040Y176044D01*
X291040Y177460D02*
X291040Y160540D01*
X291040Y177460D02*
X298960Y177460D01*
X298960Y160540D01*
X291040Y160540D01*
X291040Y164416D02*
X298960Y164416D01*
X298960Y168292D02*
X291040Y168292D01*
X291040Y172168D02*
X298960Y172168D01*
X298960Y176044D02*
X291040Y176044D01*
X271040Y177460D02*
X271040Y160540D01*
X271040Y177460D02*
X278960Y177460D01*
X278960Y160540D01*
X271040Y160540D01*
X271040Y164416D02*
X278960Y164416D01*
X278960Y168292D02*
X271040Y168292D01*
X271040Y172168D02*
X278960Y172168D01*
X278960Y176044D02*
X271040Y176044D01*
X251040Y177460D02*
X251040Y160540D01*
X251040Y177460D02*
X258960Y177460D01*
X258960Y160540D01*
X251040Y160540D01*
X251040Y164416D02*
X258960Y164416D01*
X258960Y168292D02*
X251040Y168292D01*
X251040Y172168D02*
X258960Y172168D01*
X258960Y176044D02*
X251040Y176044D01*
X231040Y177460D02*
X231040Y160540D01*
X231040Y177460D02*
X238960Y177460D01*
X238960Y160540D01*
X231040Y160540D01*
X231040Y164416D02*
X238960Y164416D01*
X238960Y168292D02*
X231040Y168292D01*
X231040Y172168D02*
X238960Y172168D01*
X238960Y176044D02*
X231040Y176044D01*
X211040Y177460D02*
X211040Y160540D01*
X211040Y177460D02*
X218960Y177460D01*
X218960Y160540D01*
X211040Y160540D01*
X211040Y164416D02*
X218960Y164416D01*
X218960Y168292D02*
X211040Y168292D01*
X211040Y172168D02*
X218960Y172168D01*
X218960Y176044D02*
X211040Y176044D01*
X218960Y29460D02*
X218960Y12540D01*
X211040Y12540D01*
X211040Y29460D01*
X218960Y29460D01*
X218960Y16416D02*
X211040Y16416D01*
X211040Y20292D02*
X218960Y20292D01*
X218960Y24168D02*
X211040Y24168D01*
X211040Y28044D02*
X218960Y28044D01*
X238960Y29460D02*
X238960Y12540D01*
X231040Y12540D01*
X231040Y29460D01*
X238960Y29460D01*
X238960Y16416D02*
X231040Y16416D01*
X231040Y20292D02*
X238960Y20292D01*
X238960Y24168D02*
X231040Y24168D01*
X231040Y28044D02*
X238960Y28044D01*
X258960Y29460D02*
X258960Y12540D01*
X251040Y12540D01*
X251040Y29460D01*
X258960Y29460D01*
X258960Y16416D02*
X251040Y16416D01*
X251040Y20292D02*
X258960Y20292D01*
X258960Y24168D02*
X251040Y24168D01*
X251040Y28044D02*
X258960Y28044D01*
X278960Y29460D02*
X278960Y12540D01*
X271040Y12540D01*
X271040Y29460D01*
X278960Y29460D01*
X278960Y16416D02*
X271040Y16416D01*
X271040Y20292D02*
X278960Y20292D01*
X278960Y24168D02*
X271040Y24168D01*
X271040Y28044D02*
X278960Y28044D01*
X298960Y29460D02*
X298960Y12540D01*
X291040Y12540D01*
X291040Y29460D01*
X298960Y29460D01*
X298960Y16416D02*
X291040Y16416D01*
X291040Y20292D02*
X298960Y20292D01*
X298960Y24168D02*
X291040Y24168D01*
X291040Y28044D02*
X298960Y28044D01*
X318960Y29460D02*
X318960Y12540D01*
X311040Y12540D01*
X311040Y29460D01*
X318960Y29460D01*
X318960Y16416D02*
X311040Y16416D01*
X311040Y20292D02*
X318960Y20292D01*
X318960Y24168D02*
X311040Y24168D01*
X311040Y28044D02*
X318960Y28044D01*
X338960Y29460D02*
X338960Y12540D01*
X331040Y12540D01*
X331040Y29460D01*
X338960Y29460D01*
X338960Y16416D02*
X331040Y16416D01*
X331040Y20292D02*
X338960Y20292D01*
X338960Y24168D02*
X331040Y24168D01*
X331040Y28044D02*
X338960Y28044D01*
X358960Y29460D02*
X358960Y12540D01*
X351040Y12540D01*
X351040Y29460D01*
X358960Y29460D01*
X358960Y16416D02*
X351040Y16416D01*
X351040Y20292D02*
X358960Y20292D01*
X358960Y24168D02*
X351040Y24168D01*
X351040Y28044D02*
X358960Y28044D01*
D28*
X253440Y136560D02*
X249060Y136560D01*
X249060Y138440D01*
X253440Y138440D01*
X253440Y136560D01*
X253440Y131560D02*
X249060Y131560D01*
X249060Y133440D01*
X253440Y133440D01*
X253440Y131560D01*
X253440Y126560D02*
X249060Y126560D01*
X249060Y128440D01*
X253440Y128440D01*
X253440Y126560D01*
X253440Y121560D02*
X249060Y121560D01*
X249060Y123440D01*
X253440Y123440D01*
X253440Y121560D01*
X256560Y119060D02*
X258440Y119060D01*
X256560Y119060D02*
X256560Y123440D01*
X258440Y123440D01*
X258440Y119060D01*
X258440Y121074D02*
X256560Y121074D01*
X256560Y123088D02*
X258440Y123088D01*
X266560Y123440D02*
X270940Y123440D01*
X270940Y121560D01*
X266560Y121560D01*
X266560Y123440D01*
X266560Y128440D02*
X270940Y128440D01*
X270940Y126560D01*
X266560Y126560D01*
X266560Y128440D01*
X266560Y133440D02*
X270940Y133440D01*
X270940Y131560D01*
X266560Y131560D01*
X266560Y133440D01*
X266560Y138440D02*
X270940Y138440D01*
X270940Y136560D01*
X266560Y136560D01*
X266560Y138440D01*
X263440Y140940D02*
X261560Y140940D01*
X263440Y140940D02*
X263440Y136560D01*
X261560Y136560D01*
X261560Y140940D01*
X261560Y138574D02*
X263440Y138574D01*
X263440Y140588D02*
X261560Y140588D01*
X258440Y140940D02*
X256560Y140940D01*
X258440Y140940D02*
X258440Y136560D01*
X256560Y136560D01*
X256560Y140940D01*
X256560Y138574D02*
X258440Y138574D01*
X258440Y140588D02*
X256560Y140588D01*
X261560Y119060D02*
X263440Y119060D01*
X261560Y119060D02*
X261560Y123440D01*
X263440Y123440D01*
X263440Y119060D01*
X263440Y121074D02*
X261560Y121074D01*
X261560Y123088D02*
X263440Y123088D01*
D12*
X233750Y135250D02*
X233750Y139750D01*
X233750Y135250D02*
X226250Y135250D01*
X226250Y139750D01*
X233750Y139750D01*
X233750Y138100D02*
X226250Y138100D01*
X233750Y124750D02*
X233750Y120250D01*
X226250Y120250D01*
X226250Y124750D01*
X233750Y124750D01*
X233750Y123100D02*
X226250Y123100D01*
D20*
X13493Y176507D02*
X6507Y176507D01*
X6507Y182493D01*
X13493Y182493D01*
X13493Y176507D01*
X13493Y179846D02*
X6507Y179846D01*
X6507Y157507D02*
X13493Y157507D01*
X6507Y157507D02*
X6507Y163493D01*
X13493Y163493D01*
X13493Y157507D01*
X13493Y160846D02*
X6507Y160846D01*
X26507Y167007D02*
X33493Y167007D01*
X26507Y167007D02*
X26507Y172993D01*
X33493Y172993D01*
X33493Y167007D01*
X33493Y170346D02*
X26507Y170346D01*
D12*
X14750Y143750D02*
X10250Y143750D01*
X14750Y143750D02*
X14750Y136250D01*
X10250Y136250D01*
X10250Y143750D01*
X10250Y139100D02*
X14750Y139100D01*
X14750Y141950D02*
X10250Y141950D01*
X25250Y143750D02*
X29750Y143750D01*
X29750Y136250D01*
X25250Y136250D01*
X25250Y143750D01*
X25250Y139100D02*
X29750Y139100D01*
X29750Y141950D02*
X25250Y141950D01*
D23*
X255450Y78200D02*
X258050Y78200D01*
X255450Y78200D02*
X255450Y82300D01*
X258050Y82300D01*
X258050Y78200D01*
X258050Y80480D02*
X255450Y80480D01*
X261950Y78200D02*
X264550Y78200D01*
X261950Y78200D02*
X261950Y82300D01*
X264550Y82300D01*
X264550Y78200D01*
X264550Y80480D02*
X261950Y80480D01*
X268450Y78200D02*
X271050Y78200D01*
X268450Y78200D02*
X268450Y82300D01*
X271050Y82300D01*
X271050Y78200D01*
X271050Y80480D02*
X268450Y80480D01*
X251550Y78200D02*
X248950Y78200D01*
X248950Y82300D01*
X251550Y82300D01*
X251550Y78200D01*
X251550Y80480D02*
X248950Y80480D01*
X261950Y61800D02*
X264550Y61800D01*
X264550Y57700D01*
X261950Y57700D01*
X261950Y61800D01*
X261950Y59980D02*
X264550Y59980D01*
X258050Y61800D02*
X255450Y61800D01*
X258050Y61800D02*
X258050Y57700D01*
X255450Y57700D01*
X255450Y61800D01*
X255450Y59980D02*
X258050Y59980D01*
X251550Y61800D02*
X248950Y61800D01*
X251550Y61800D02*
X251550Y57700D01*
X248950Y57700D01*
X248950Y61800D01*
X248950Y59980D02*
X251550Y59980D01*
X268450Y61800D02*
X271050Y61800D01*
X271050Y57700D01*
X268450Y57700D01*
X268450Y61800D01*
X268450Y59980D02*
X271050Y59980D01*
D12*
X293750Y75250D02*
X293750Y79750D01*
X293750Y75250D02*
X286250Y75250D01*
X286250Y79750D01*
X293750Y79750D01*
X293750Y78100D02*
X286250Y78100D01*
X293750Y64750D02*
X293750Y60250D01*
X286250Y60250D01*
X286250Y64750D01*
X293750Y64750D01*
X293750Y63100D02*
X286250Y63100D01*
D29*
X340690Y132810D02*
X340690Y139190D01*
X340690Y132810D02*
X335810Y132810D01*
X335810Y139190D01*
X340690Y139190D01*
X340690Y135774D02*
X335810Y135774D01*
X335810Y138738D02*
X340690Y138738D01*
X354190Y139190D02*
X354190Y132810D01*
X349310Y132810D01*
X349310Y139190D01*
X354190Y139190D01*
X354190Y135774D02*
X349310Y135774D01*
X349310Y138738D02*
X354190Y138738D01*
X354190Y127190D02*
X354190Y120810D01*
X349310Y120810D01*
X349310Y127190D01*
X354190Y127190D01*
X354190Y123774D02*
X349310Y123774D01*
X349310Y126738D02*
X354190Y126738D01*
X340690Y127190D02*
X340690Y120810D01*
X335810Y120810D01*
X335810Y127190D01*
X340690Y127190D01*
X340690Y123774D02*
X335810Y123774D01*
X335810Y126738D02*
X340690Y126738D01*
D12*
X323750Y135250D02*
X323750Y139750D01*
X323750Y135250D02*
X316250Y135250D01*
X316250Y139750D01*
X323750Y139750D01*
X323750Y138100D02*
X316250Y138100D01*
X323750Y124750D02*
X323750Y120250D01*
X316250Y120250D01*
X316250Y124750D01*
X323750Y124750D01*
X323750Y123100D02*
X316250Y123100D01*
D13*
X319385Y81385D02*
X319385Y77615D01*
X310615Y77615D01*
X310615Y81385D01*
X319385Y81385D01*
X319385Y80208D02*
X310615Y80208D01*
X319385Y71885D02*
X319385Y68115D01*
X310615Y68115D01*
X310615Y71885D01*
X319385Y71885D01*
X319385Y70708D02*
X310615Y70708D01*
X319385Y62385D02*
X319385Y58615D01*
X310615Y58615D01*
X310615Y62385D01*
X319385Y62385D01*
X319385Y61208D02*
X310615Y61208D01*
X340615Y62385D02*
X340615Y58615D01*
X340615Y62385D02*
X349385Y62385D01*
X349385Y58615D01*
X340615Y58615D01*
X340615Y61208D02*
X349385Y61208D01*
X340615Y68115D02*
X340615Y71885D01*
X349385Y71885D01*
X349385Y68115D01*
X340615Y68115D01*
X340615Y70708D02*
X349385Y70708D01*
X340615Y77615D02*
X340615Y81385D01*
X349385Y81385D01*
X349385Y77615D01*
X340615Y77615D01*
X340615Y80208D02*
X349385Y80208D01*
D30*
X17314Y79431D02*
X12526Y79431D01*
X12526Y90569D01*
X17314Y90569D01*
X17314Y79431D01*
X17314Y82340D02*
X12526Y82340D01*
X12526Y85249D02*
X17314Y85249D01*
X17314Y88158D02*
X12526Y88158D01*
X22686Y79431D02*
X27474Y79431D01*
X22686Y79431D02*
X22686Y90569D01*
X27474Y90569D01*
X27474Y79431D01*
X27474Y82340D02*
X22686Y82340D01*
X22686Y85249D02*
X27474Y85249D01*
X27474Y88158D02*
X22686Y88158D01*
X284431Y132686D02*
X284431Y137474D01*
X295569Y137474D01*
X295569Y132686D01*
X284431Y132686D01*
X284431Y135595D02*
X295569Y135595D01*
X284431Y127314D02*
X284431Y122526D01*
X284431Y127314D02*
X295569Y127314D01*
X295569Y122526D01*
X284431Y122526D01*
X284431Y125435D02*
X295569Y125435D01*
M02*
